<svg xmlns="http://www.w3.org/2000/svg" xmlns:xlink="http://www.w3.org/1999/xlink" width="500" zoomAndPan="magnify" viewBox="0 0 375 374.999991" height="500" preserveAspectRatio="xMidYMid meet" version="1.0"><defs><g/><clipPath id="1b5f0403ca"><path d="M 124.707031 128.25 L 249.957031 128.25 L 249.957031 211.382812 L 124.707031 211.382812 Z M 124.707031 128.25 " clip-rule="nonzero"/></clipPath><clipPath id="1f5b319950"><path d="M 166 86.183594 L 185 86.183594 L 185 105 L 166 105 Z M 166 86.183594 " clip-rule="nonzero"/></clipPath></defs><rect x="-37.5" width="450" fill="#ffffff" y="-37.499999" height="449.999989" fill-opacity="1"/><rect x="-37.5" width="450" fill="#ffffff" y="-37.499999" height="449.999989" fill-opacity="1"/><rect x="-37.5" width="450" fill="#89658e" y="-37.499999" height="449.999989" fill-opacity="1"/><g clip-path="url(#1b5f0403ca)"><path fill="#fafef8" d="M 196.933594 185.1875 C 196.945312 185.191406 196.953125 185.195312 196.964844 185.199219 C 196.964844 185.1875 196.972656 185.175781 196.96875 185.171875 C 196.964844 185.164062 196.953125 185.164062 196.941406 185.160156 C 196.9375 185.167969 196.9375 185.179688 196.933594 185.1875 Z M 213.164062 131.828125 C 213.179688 131.816406 213.199219 131.800781 213.21875 131.789062 C 213.210938 131.777344 213.195312 131.757812 213.195312 131.761719 C 213.175781 131.769531 213.15625 131.785156 213.136719 131.796875 C 213.144531 131.808594 213.152344 131.816406 213.164062 131.828125 Z M 205.648438 134.910156 C 205.554688 135.015625 205.503906 135.074219 205.449219 135.136719 C 205.519531 135.183594 205.585938 135.257812 205.660156 135.265625 C 205.714844 135.269531 205.824219 135.175781 205.820312 135.132812 C 205.816406 135.070312 205.730469 135.011719 205.648438 134.910156 Z M 235.875 151.375 C 236.109375 151.757812 236.203125 151.914062 236.300781 152.070312 C 236.363281 151.933594 236.476562 151.792969 236.472656 151.660156 C 236.46875 151.53125 236.371094 151.355469 236.257812 151.292969 C 236.175781 151.242188 236.007812 151.34375 235.875 151.375 Z M 192.152344 194.726562 C 192.183594 194.730469 192.136719 194.710938 192.105469 194.722656 C 191.933594 194.789062 191.765625 194.863281 191.597656 194.933594 C 191.75 194.960938 191.90625 195.011719 192.054688 195.003906 C 192.785156 194.953125 193.511719 194.890625 194.238281 194.828125 C 194.355469 194.816406 194.472656 194.773438 194.589844 194.746094 C 194.476562 194.699219 194.359375 194.605469 194.246094 194.609375 C 193.574219 194.632812 192.898438 194.679688 192.152344 194.726562 Z M 134.226562 193.523438 C 133.53125 193.1875 132.945312 192.632812 132.3125 192.171875 C 131.414062 191.527344 131.019531 190.558594 130.714844 189.582031 C 130.566406 189.101562 130.777344 188.519531 130.644531 188.03125 C 130.320312 186.855469 130.875 185.839844 131.175781 184.796875 C 131.578125 183.398438 132.144531 182.046875 132.609375 180.667969 C 132.746094 180.269531 132.789062 179.835938 132.835938 179.414062 C 132.894531 178.878906 132.871094 178.332031 132.960938 177.804688 C 133.027344 177.421875 133.253906 177.066406 133.359375 176.683594 C 133.546875 176.003906 133.675781 175.308594 133.867188 174.632812 C 134.179688 173.519531 134.59375 172.433594 134.839844 171.308594 C 135.074219 170.25 135.097656 169.152344 135.300781 168.089844 C 135.5625 166.742188 135.933594 165.414062 136.21875 164.070312 C 136.460938 162.921875 136.585938 161.746094 136.875 160.609375 C 137.179688 159.402344 137.648438 158.238281 137.976562 157.039062 C 138.34375 155.703125 138.667969 154.351562 138.945312 152.996094 C 139.148438 152.015625 139.269531 151.019531 139.386719 150.023438 C 139.464844 149.382812 139.496094 148.730469 139.496094 148.082031 C 139.492188 147.609375 139.375 147.140625 139.355469 146.667969 C 139.335938 146.234375 139.449219 145.789062 139.363281 145.378906 C 139.320312 145.167969 138.992188 144.910156 138.757812 144.867188 C 138.394531 144.800781 137.933594 144.773438 137.824219 145.320312 C 137.734375 145.789062 137.65625 146.265625 137.558594 146.734375 C 137.367188 147.632812 137.121094 148.523438 136.984375 149.429688 C 136.824219 150.527344 136.785156 151.644531 136.632812 152.742188 C 136.457031 153.996094 136.226562 155.238281 136.003906 156.484375 C 135.699219 158.191406 135.386719 159.898438 135.058594 161.601562 C 134.914062 162.355469 134.722656 163.105469 134.550781 163.855469 C 134.410156 164.464844 134.234375 165.066406 134.132812 165.679688 C 134.015625 166.375 134.03125 167.097656 133.867188 167.78125 C 133.394531 169.75 132.855469 171.703125 132.34375 173.664062 C 132.058594 174.765625 131.71875 175.859375 131.5 176.972656 C 131.25 178.21875 131.140625 179.488281 130.917969 180.738281 C 130.695312 181.984375 130.402344 183.214844 130.160156 184.457031 C 129.929688 185.625 129.707031 186.796875 129.515625 187.972656 C 129.371094 188.859375 129.289062 189.757812 129.160156 190.648438 C 129.101562 191.046875 128.867188 191.460938 128.925781 191.832031 C 129.050781 192.566406 129.085938 193.289062 129.304688 194.007812 C 129.371094 194.222656 129.207031 193.824219 129.371094 194.222656 C 129.058594 194.921875 129.640625 195.941406 129.859375 196.621094 C 130.074219 197.285156 130.375 197.917969 131.0625 198.03125 C 132.003906 198.179688 132.929688 198.496094 133.945312 198.265625 C 135.464844 197.917969 137.019531 197.691406 138.570312 197.492188 C 139.417969 197.382812 140.296875 197.515625 141.140625 197.386719 C 142.023438 197.253906 142.871094 196.917969 143.746094 196.710938 C 145.046875 196.402344 146.34375 195.972656 147.660156 195.886719 C 149.707031 195.753906 151.769531 195.871094 153.824219 195.871094 C 154.457031 195.871094 155.109375 195.898438 155.726562 195.78125 C 156.792969 195.578125 157.84375 195.417969 158.929688 195.652344 C 159.816406 195.84375 160.710938 196.050781 161.613281 196.121094 C 162.113281 196.160156 162.632812 195.941406 163.144531 195.835938 C 163.253906 195.8125 163.363281 195.777344 163.472656 195.746094 C 163.367188 195.6875 163.269531 195.582031 163.160156 195.570312 C 162.066406 195.453125 160.976562 195.332031 159.882812 195.246094 C 159.503906 195.21875 159.109375 195.335938 158.734375 195.300781 C 158.160156 195.246094 157.597656 195.0625 157.027344 195.035156 C 155.753906 194.972656 154.480469 194.980469 153.210938 194.960938 C 152.34375 194.945312 151.476562 194.941406 150.609375 194.90625 C 149.871094 194.875 149.132812 194.800781 148.398438 194.757812 C 148.167969 194.746094 147.9375 194.800781 147.707031 194.789062 C 146.570312 194.730469 145.4375 194.667969 144.300781 194.601562 C 143.683594 194.566406 143.066406 194.503906 142.449219 194.480469 C 141.628906 194.457031 140.804688 194.425781 139.984375 194.460938 C 139.203125 194.488281 138.421875 194.59375 137.640625 194.667969 M 233.910156 138.679688 C 233.746094 138.734375 233.585938 138.785156 233.421875 138.839844 C 232.9375 138.996094 232.433594 139.113281 231.984375 139.332031 C 231.839844 139.40625 231.703125 139.847656 231.789062 139.960938 C 232.25 140.59375 232.066406 141.292969 232.054688 141.953125 C 232.035156 143.007812 231.902344 144.058594 231.832031 145.113281 C 231.796875 145.605469 231.730469 146.105469 231.796875 146.585938 C 231.945312 147.625 232.257812 148.644531 232.335938 149.683594 C 232.445312 151.050781 232.359375 152.429688 232.417969 153.800781 C 232.484375 155.277344 232.664062 156.75 232.714844 158.226562 C 232.777344 160.078125 232.699219 161.933594 232.789062 163.785156 C 232.863281 165.347656 233.074219 166.910156 233.253906 168.46875 C 233.464844 170.296875 233.722656 172.121094 233.929688 173.953125 C 234.042969 174.914062 234.121094 175.878906 234.167969 176.84375 C 234.195312 177.410156 234.125 177.980469 234.117188 178.550781 C 234.105469 179.46875 234.109375 180.386719 234.105469 181.300781 C 234.105469 181.53125 234.082031 181.761719 234.121094 181.980469 C 234.328125 183.238281 234.3125 184.46875 233.773438 185.65625 C 233.71875 185.773438 233.703125 185.910156 233.671875 186.042969 C 233.4375 187.109375 233.199219 188.171875 232.3125 188.953125 C 231.945312 189.273438 231.628906 189.652344 231.261719 189.96875 C 230.808594 190.363281 230.378906 190.847656 229.84375 191.0625 C 228.613281 191.558594 227.355469 192.070312 226.058594 192.292969 C 224.296875 192.589844 222.484375 192.628906 220.695312 192.769531 C 220.210938 192.804688 219.722656 192.777344 219.238281 192.824219 C 217.664062 192.972656 216.09375 193.144531 214.523438 193.304688 C 214.519531 193.285156 214.515625 193.265625 214.511719 193.25 C 214.40625 193.269531 214.296875 193.289062 214.1875 193.3125 C 214.285156 193.394531 214.375 193.5 214.488281 193.550781 C 214.605469 193.609375 214.75 193.632812 214.882812 193.632812 C 215.683594 193.640625 216.488281 193.640625 217.289062 193.636719 C 218.90625 193.628906 220.527344 193.625 222.144531 193.605469 C 222.605469 193.597656 223.070312 193.480469 223.523438 193.519531 C 224.855469 193.632812 226.125 193.394531 227.367188 192.949219 C 227.632812 192.855469 227.90625 192.648438 228.164062 192.664062 C 228.652344 192.695312 229.003906 192.621094 229.425781 192.292969 C 229.765625 192.027344 230.378906 192.125 230.851562 192 C 231.601562 191.800781 232.34375 191.582031 233.070312 191.320312 C 234.171875 190.925781 235.277344 190.523438 236.128906 189.683594 C 236.605469 189.210938 237.152344 188.773438 237.507812 188.222656 C 238.359375 186.898438 238.222656 185.363281 238.046875 183.933594 C 237.832031 182.203125 237.222656 180.523438 236.917969 178.800781 C 236.601562 177.039062 236.441406 175.253906 236.230469 173.480469 C 235.957031 171.160156 235.738281 168.835938 235.417969 166.523438 C 235.234375 165.164062 234.875 163.832031 234.640625 162.480469 C 234.503906 161.699219 234.359375 160.898438 234.386719 160.113281 C 234.464844 157.796875 234.585938 155.484375 234.773438 153.175781 C 234.898438 151.644531 235.046875 150.101562 235.402344 148.609375 C 235.699219 147.367188 236.269531 146.199219 236.394531 144.882812 C 236.515625 143.644531 236.71875 142.425781 236.4375 141.191406 C 236.335938 140.765625 236.320312 140.25 236.0625 139.941406 M 181.90625 201.871094 C 181.910156 201.851562 181.910156 201.832031 181.910156 201.8125 C 182.320312 201.8125 182.730469 201.847656 183.132812 201.796875 C 183.304688 201.777344 183.574219 201.589844 183.585938 201.457031 C 183.632812 201.039062 183.597656 200.605469 183.550781 200.183594 C 183.535156 200.054688 183.394531 199.863281 183.277344 199.835938 C 182.730469 199.710938 182.171875 199.558594 181.617188 199.5625 C 180.851562 199.566406 180.089844 199.730469 179.320312 199.777344 C 177.050781 199.917969 174.78125 200.03125 172.507812 200.152344 C 171.941406 200.183594 171.363281 200.148438 170.808594 200.234375 C 169.167969 200.496094 167.535156 200.808594 165.898438 201.097656 C 165.09375 201.238281 164.289062 201.394531 163.476562 201.511719 C 161.84375 201.746094 160.210938 201.96875 158.574219 202.167969 C 158.171875 202.21875 157.757812 202.148438 157.347656 202.167969 C 156.738281 202.191406 156.125 202.269531 155.515625 202.269531 C 155.003906 202.269531 154.496094 202.15625 153.984375 202.148438 C 152.285156 202.128906 150.585938 202.507812 148.878906 202.082031 C 148.421875 201.964844 147.90625 202.101562 147.421875 202.070312 C 146.074219 201.988281 144.726562 201.839844 143.378906 201.789062 C 141.949219 201.738281 140.515625 201.75 139.085938 201.769531 C 138.535156 201.773438 137.988281 201.882812 137.4375 201.910156 C 136.648438 201.949219 135.855469 201.898438 135.078125 201.988281 C 133.464844 202.179688 131.859375 202.441406 130.25 202.675781 C 128.964844 202.867188 127.859375 203.464844 126.875 204.253906 C 126.5625 204.503906 126.359375 204.972656 126.265625 205.378906 C 126.09375 206.082031 126.027344 206.8125 125.960938 207.53125 C 125.941406 207.761719 126.023438 208.027344 126.140625 208.226562 C 126.171875 208.28125 126.503906 208.175781 126.695312 208.136719 C 126.890625 208.097656 127.085938 208.054688 127.285156 208.011719 C 127.855469 207.894531 128.453125 207.839844 128.996094 207.644531 C 130.121094 207.242188 131.214844 206.746094 132.339844 206.332031 C 132.753906 206.183594 133.214844 206.117188 133.65625 206.097656 C 135.027344 206.035156 136.402344 206.011719 137.773438 205.96875 C 138.945312 205.933594 140.113281 205.902344 141.285156 205.84375 C 142.804688 205.761719 144.328125 205.914062 145.847656 205.710938 C 146.9375 205.570312 148.039062 205.5 149.140625 205.488281 C 151.777344 205.46875 154.417969 205.625 157.011719 204.898438 C 158.039062 204.609375 159.140625 204.582031 160.207031 204.429688 C 161.519531 204.242188 162.832031 204.054688 164.144531 203.855469 C 164.820312 203.753906 165.496094 203.640625 166.164062 203.488281 C 166.847656 203.332031 167.515625 203.109375 168.199219 202.941406 C 168.828125 202.789062 169.460938 202.660156 170.097656 202.546875 C 171.222656 202.339844 172.339844 202.089844 173.472656 201.976562 C 174.761719 201.851562 176.066406 201.851562 177.363281 201.800781 C 178.257812 201.765625 179.148438 201.707031 180.042969 201.714844 C 180.664062 201.71875 181.285156 201.816406 181.90625 201.871094 Z M 145.777344 197.257812 C 145.351562 196.964844 142.625 198.03125 142.226562 198.183594 C 141.820312 198.335938 141.378906 198.441406 140.945312 198.476562 C 140.203125 198.53125 139.449219 198.46875 138.710938 198.542969 C 137.585938 198.660156 136.46875 198.871094 135.347656 198.996094 C 134.1875 199.125 132.984375 199.417969 131.871094 199.238281 C 130.671875 199.042969 129.765625 198.089844 129.015625 197.140625 C 128.714844 196.761719 128.601562 196.242188 128.390625 195.792969 C 128.335938 195.683594 128.222656 195.597656 128.125 195.511719 C 128.121094 195.503906 128 195.574219 127.988281 195.625 C 127.828125 196.183594 127.644531 196.734375 127.535156 197.304688 C 127.390625 198.078125 127.332031 198.867188 127.183594 199.640625 C 127.015625 200.535156 126.773438 201.414062 126.59375 202.304688 C 126.546875 202.535156 126.617188 202.789062 126.632812 203.027344 C 126.910156 202.933594 127.199219 202.867188 127.453125 202.734375 C 127.613281 202.652344 127.714844 202.46875 127.851562 202.34375 C 127.988281 202.21875 128.125 202.054688 128.289062 202.003906 C 129.097656 201.753906 129.902344 201.460938 130.734375 201.324219 C 132.257812 201.078125 133.796875 200.871094 135.339844 200.753906 C 136.722656 200.648438 138.121094 200.660156 139.515625 200.664062 C 141.25 200.664062 142.992188 200.671875 144.726562 200.742188 C 146.492188 200.816406 148.25 200.992188 150.015625 201.082031 C 151.132812 201.136719 152.253906 201.09375 153.371094 201.121094 C 153.796875 201.132812 154.222656 201.261719 154.652344 201.257812 C 155.558594 201.253906 156.46875 201.226562 157.371094 201.148438 C 159.027344 201.003906 160.679688 200.851562 162.328125 200.636719 C 163.550781 200.480469 164.761719 200.222656 165.980469 200.015625 C 166.792969 199.875 167.609375 199.75 168.421875 199.605469 C 169.453125 199.429688 170.472656 199.1875 171.507812 199.074219 C 172.390625 198.984375 173.292969 199.066406 174.183594 199.023438 C 174.800781 198.992188 175.414062 198.859375 176.03125 198.816406 C 177.003906 198.746094 177.980469 198.71875 178.957031 198.667969 C 180.078125 198.601562 181.203125 198.5625 182.320312 198.441406 C 182.664062 198.402344 183.136719 198.210938 183.285156 197.945312 C 183.554688 197.464844 183.1875 196.515625 182.757812 196.347656 C 181.875 196.003906 180.996094 195.539062 180.078125 195.425781 C 178.292969 195.195312 176.484375 195.175781 174.507812 195.058594 C 174.617188 195.050781 174.546875 195.042969 174.480469 195.0625 C 174.347656 195.09375 174.21875 195.140625 174.089844 195.179688 C 174.199219 195.246094 174.308594 195.351562 174.425781 195.371094 C 175.460938 195.511719 176.496094 195.742188 177.53125 195.742188 C 178.589844 195.742188 182.0625 195.691406 182.980469 196.25 C 183.089844 196.316406 186.925781 196.71875 183.609375 196.578125 C 183.480469 196.628906 180.507812 196.820312 180.382812 196.816406 C 178.964844 196.757812 177.546875 196.683594 176.128906 196.613281 C 175.679688 196.589844 175.207031 196.667969 174.789062 196.542969 C 173.277344 196.089844 171.707031 196.148438 170.164062 195.984375 C 170.003906 195.96875 169.835938 195.980469 169.675781 196 C 167.703125 196.273438 165.726562 196.546875 163.75 196.824219 C 162.375 197.023438 161.011719 197.058594 159.628906 196.816406 C 158.792969 196.671875 157.921875 196.664062 157.066406 196.664062 C 156.300781 196.664062 155.53125 196.777344 154.761719 196.808594 C 153.8125 196.847656 152.863281 196.859375 151.917969 196.871094 C 151.324219 196.875 150.679688 196.996094 150.144531 196.8125 C 149.285156 196.519531 148.492188 196.691406 147.675781 196.847656 C 147.039062 196.96875 146.394531 197.074219 145.777344 197.257812 M 218.371094 132.3125 C 217.855469 132.085938 217.683594 132.355469 217.59375 132.792969 C 217.582031 132.855469 217.496094 132.929688 217.425781 132.953125 C 216.84375 133.136719 217.050781 133.46875 217.21875 133.835938 C 217.476562 134.414062 217.789062 134.992188 217.902344 135.601562 C 218.039062 136.371094 218.015625 137.167969 218.027344 137.953125 C 218.054688 139.683594 218.105469 141.417969 218.058594 143.144531 C 218.027344 144.316406 217.804688 145.480469 217.757812 146.648438 C 217.699219 148.113281 217.808594 149.585938 217.714844 151.046875 C 217.628906 152.464844 217.207031 153.878906 217.234375 155.289062 C 217.277344 157.308594 217.582031 159.320312 217.796875 161.335938 C 217.933594 162.652344 218.128906 163.960938 218.261719 165.277344 C 218.433594 167.023438 218.542969 168.78125 218.726562 170.527344 C 218.933594 172.460938 219.191406 174.386719 219.386719 176.007812 C 219.207031 178.691406 219.128906 179.21875 217.394531 180.589844 C 216.570312 181.246094 215.40625 181.546875 214.34375 181.832031 C 213.03125 182.183594 211.675781 182.398438 210.324219 182.582031 C 208.402344 182.847656 206.46875 183.027344 204.542969 183.253906 C 203.816406 183.339844 203.054688 183.347656 202.378906 183.582031 C 201.078125 184.027344 199.828125 184.605469 198.558594 185.132812 C 197.984375 185.371094 197.378906 185.550781 196.851562 185.863281 C 196.183594 186.265625 195.601562 186.804688 194.941406 187.222656 C 194.53125 187.480469 193.929688 187.515625 193.628906 187.84375 C 193.085938 188.425781 193.195312 188.6875 192.390625 188.75 C 192.335938 188.757812 191.617188 188.984375 191.566406 189.027344 C 191.207031 189.363281 190.894531 189.78125 190.476562 190.011719 C 188.933594 190.875 187.523438 191.882812 186.371094 193.226562 C 186.300781 193.308594 186.257812 193.421875 186.199219 193.519531 C 186.3125 193.519531 186.4375 193.550781 186.539062 193.519531 C 187.269531 193.289062 188 193.0625 188.710938 192.792969 C 189.070312 192.65625 189.375 192.390625 189.726562 192.238281 C 190.441406 191.921875 191.191406 191.683594 191.886719 191.339844 C 192.835938 190.867188 193.746094 190.316406 194.679688 189.820312 C 196.25 188.980469 197.839844 188.183594 199.390625 187.320312 C 200.101562 186.925781 200.730469 186.453125 201.636719 186.515625 C 202.332031 186.558594 203.042969 186.417969 203.742188 186.335938 C 204.628906 186.234375 205.488281 186.054688 206.417969 186.109375 C 207.628906 186.179688 208.863281 185.941406 210.085938 185.8125 C 211.214844 185.691406 212.339844 185.542969 213.460938 185.394531 C 214.886719 185.203125 216.347656 185.136719 217.71875 184.761719 C 218.949219 184.421875 220.089844 183.746094 221.261719 183.199219 C 221.503906 183.085938 221.683594 182.824219 221.929688 182.753906 C 223.460938 182.316406 223.910156 181 224.421875 179.769531 C 224.621094 179.289062 224.730469 178.722656 224.6875 178.214844 C 224.589844 177.070312 224.230469 175.933594 224.242188 174.796875 C 224.257812 173.601562 224.335938 172.429688 224.042969 171.246094 C 223.863281 170.519531 223.910156 169.738281 223.808594 168.988281 C 223.601562 167.503906 223.367188 166.023438 223.132812 164.542969 C 222.957031 163.4375 222.722656 162.34375 222.589844 161.234375 C 222.386719 159.488281 222.242188 157.730469 222.078125 155.976562 C 221.941406 154.519531 221.753906 153.058594 221.699219 151.597656 C 221.65625 150.410156 221.777344 149.214844 221.8125 148.023438 C 221.84375 146.90625 221.875 145.789062 221.859375 144.671875 C 221.847656 143.351562 221.78125 142.035156 221.746094 140.714844 C 221.742188 140.507812 221.820312 140.292969 221.804688 140.082031 C 221.707031 138.910156 221.617188 137.738281 221.472656 136.570312 C 221.386719 135.878906 221.234375 135.191406 221.046875 134.523438 C 220.898438 133.980469 220.714844 133.421875 220.421875 132.949219 C 220.246094 132.664062 219.835938 132.515625 219.515625 132.328125 C 219.371094 132.242188 219.132812 132.246094 219.042969 132.128906 M 142.226562 185.445312 C 142.226562 185.425781 142.222656 185.40625 142.21875 185.386719 C 141.765625 185.320312 141.257812 185.363281 140.867188 185.167969 C 139.785156 184.636719 138.765625 184.019531 138.042969 182.984375 C 137.351562 182 137.121094 180.9375 137.105469 179.785156 C 137.097656 178.914062 137.046875 178.046875 137.023438 177.175781 C 137.023438 177.078125 137.078125 176.976562 137.121094 176.882812 C 137.273438 176.546875 137.46875 176.226562 137.578125 175.882812 C 137.851562 174.992188 137.972656 174.039062 138.367188 173.210938 C 139.042969 171.78125 138.679688 170.242188 139.035156 168.789062 C 139.246094 167.917969 139.304688 167.011719 139.429688 166.121094 C 139.570312 165.136719 139.726562 164.15625 139.839844 163.167969 C 139.957031 162.164062 139.976562 161.140625 140.140625 160.144531 C 140.320312 159.078125 140.609375 158.027344 140.875 156.976562 C 141.144531 155.910156 141.472656 154.851562 141.730469 153.78125 C 142.082031 152.304688 142.410156 150.820312 142.699219 149.332031 C 142.808594 148.773438 142.78125 148.1875 142.8125 147.613281 C 142.855469 146.84375 142.867188 146.066406 142.953125 145.300781 C 143.035156 144.59375 143.214844 143.898438 143.328125 143.191406 C 143.417969 142.628906 143.511719 142.0625 143.539062 141.496094 C 143.558594 141.140625 143.582031 140.574219 143.394531 140.472656 C 143 140.261719 142.433594 140.148438 142.007812 140.257812 C 141.058594 140.507812 140.804688 141.449219 140.6875 142.214844 C 140.519531 143.304688 140.648438 144.441406 140.652344 145.554688 C 140.65625 146.867188 140.695312 148.175781 140.65625 149.484375 C 140.636719 150.0625 140.375 150.636719 140.390625 151.207031 C 140.429688 152.824219 139.941406 154.34375 139.535156 155.867188 C 139.097656 157.511719 138.511719 159.121094 138.042969 160.757812 C 137.765625 161.734375 137.546875 162.734375 137.371094 163.738281 C 137.1875 164.761719 137.121094 165.808594 136.929688 166.828125 C 136.765625 167.683594 136.46875 168.507812 136.273438 169.359375 C 136.117188 170.03125 136.039062 170.726562 135.90625 171.40625 C 135.714844 172.378906 135.625 173.394531 135.265625 174.308594 C 134.675781 175.8125 134.21875 177.320312 134.113281 178.9375 C 134.074219 179.523438 133.914062 180.105469 133.78125 180.683594 C 133.703125 181.03125 133.574219 181.367188 133.472656 181.714844 C 133.195312 182.6875 132.96875 183.675781 132.628906 184.628906 C 132.179688 185.886719 131.550781 187.089844 131.820312 188.488281 C 131.871094 188.761719 131.769531 189.09375 131.894531 189.3125 C 132.25 189.945312 132.679688 190.535156 133.09375 191.132812 C 133.246094 191.355469 133.402344 191.617188 133.625 191.742188 C 134.3125 192.121094 135.105469 192.351562 135.71875 192.816406 C 136.46875 193.390625 137.273438 193.367188 138.105469 193.332031 C 139.304688 193.289062 140.503906 193.117188 141.703125 193.140625 C 143.136719 193.167969 144.5625 193.386719 145.996094 193.449219 C 148.179688 193.546875 150.363281 193.5625 152.546875 193.648438 C 153.257812 193.675781 153.960938 193.875 154.675781 193.902344 C 156.492188 193.964844 158.308594 193.964844 160.121094 194.011719 C 161.484375 194.046875 162.847656 194.175781 164.207031 194.15625 C 165.898438 194.132812 167.59375 193.96875 169.285156 193.929688 C 170.472656 193.902344 171.664062 193.992188 172.855469 194.011719 C 173.164062 194.019531 173.472656 193.917969 173.785156 193.921875 C 174.921875 193.933594 176.058594 193.976562 177.195312 193.988281 C 177.789062 193.996094 178.382812 193.945312 178.976562 193.964844 C 179.390625 193.980469 179.796875 194.085938 180.210938 194.125 C 180.324219 194.136719 180.445312 194.054688 180.566406 194.015625 C 180.527344 193.910156 180.523438 193.75 180.445312 193.707031 C 180.078125 193.488281 179.714844 193.203125 179.308594 193.121094 C 177.480469 192.738281 175.628906 192.472656 173.8125 192.058594 C 172.351562 191.722656 170.929688 191.21875 169.484375 190.820312 C 167.476562 190.269531 165.449219 189.792969 163.453125 189.203125 C 161.71875 188.691406 159.890625 188.398438 158.351562 187.34375 C 158.035156 187.125 157.722656 186.84375 157.367188 186.746094 C 156.011719 186.371094 154.65625 185.933594 153.269531 185.761719 C 151.46875 185.535156 149.644531 185.5 147.828125 185.453125 C 145.960938 185.40625 144.09375 185.445312 142.226562 185.445312 Z M 160.40625 183.132812 C 158.867188 182.632812 157.253906 182.351562 155.734375 181.804688 C 154.347656 181.308594 153.039062 180.59375 151.703125 179.957031 C 151.023438 179.632812 150.394531 179.105469 149.683594 178.964844 C 148.464844 178.726562 147.550781 177.984375 146.878906 177.164062 C 146.023438 176.117188 145.460938 174.851562 145.207031 173.429688 C 144.78125 171.023438 145.453125 168.820312 146.054688 166.582031 C 146.335938 165.558594 146.757812 164.570312 147.046875 163.546875 C 147.285156 162.695312 147.386719 161.804688 147.609375 160.949219 C 147.824219 160.097656 148.152344 159.277344 148.363281 158.425781 C 148.542969 157.703125 148.574219 156.949219 148.75 156.222656 C 149.023438 155.089844 149.40625 153.976562 149.664062 152.835938 C 149.875 151.917969 149.964844 150.972656 150.113281 150.042969 C 150.269531 149.0625 150.402344 148.078125 150.601562 147.109375 C 150.988281 145.234375 150.96875 143.304688 151.488281 141.4375 C 151.726562 140.570312 151.617188 139.613281 151.675781 138.695312 C 151.71875 138.019531 151.691406 137.324219 151.847656 136.671875 C 152.070312 135.730469 151.914062 135.113281 151.125 134.566406 C 151.046875 134.511719 150.992188 134.425781 150.90625 134.382812 C 150.421875 134.140625 149.949219 133.75 149.441406 133.703125 C 148.480469 133.617188 147.503906 133.738281 146.53125 133.75 C 145.675781 133.757812 144.699219 134.414062 144.640625 135.25 C 144.5625 136.382812 144.667969 137.535156 144.695312 138.675781 C 144.730469 139.867188 144.851562 141.0625 144.777344 142.246094 C 144.683594 143.675781 144.402344 145.09375 144.242188 146.523438 C 144.121094 147.585938 144.085938 148.660156 143.957031 149.722656 C 143.890625 150.273438 143.703125 150.808594 143.574219 151.351562 C 143.335938 152.355469 143.183594 153.382812 142.851562 154.351562 C 142.183594 156.292969 141.609375 158.246094 141.335938 160.28125 C 141.21875 161.148438 141.085938 162.019531 141.007812 162.894531 C 140.941406 163.636719 141 164.390625 140.90625 165.128906 C 140.714844 166.558594 140.355469 167.972656 140.246094 169.40625 C 140.089844 171.402344 139.820312 173.351562 139.023438 175.207031 C 138.871094 175.5625 138.699219 175.925781 138.648438 176.296875 C 138.5 177.398438 138.402344 178.507812 138.289062 179.609375 C 138.46875 180.386719 138.492188 181.195312 138.839844 181.835938 C 139.925781 183.84375 141.980469 184.085938 143.976562 184.242188 C 145.265625 184.34375 146.570312 184.171875 147.863281 184.21875 C 149.847656 184.292969 151.828125 184.445312 153.808594 184.570312 C 155.671875 184.6875 157.34375 185.390625 158.964844 186.234375 C 159.488281 186.507812 159.972656 186.886719 160.523438 187.085938 C 161.390625 187.402344 162.296875 187.625 163.195312 187.851562 C 164.410156 188.15625 165.640625 188.410156 166.855469 188.710938 C 167.882812 188.964844 168.902344 189.246094 169.917969 189.53125 C 170.605469 189.722656 171.28125 189.9375 171.960938 190.140625 C 172.589844 190.332031 173.21875 190.535156 173.859375 190.710938 C 174.644531 190.921875 175.4375 191.128906 176.234375 191.304688 C 177.265625 191.535156 178.304688 191.746094 179.34375 191.945312 C 179.632812 192 179.9375 191.980469 180.234375 191.980469 C 180.257812 191.980469 180.308594 191.820312 180.300781 191.8125 C 179.921875 191.597656 179.558594 191.316406 179.144531 191.191406 C 178.679688 191.050781 178.148438 191.117188 177.6875 190.972656 C 176.898438 190.726562 176.136719 190.382812 175.363281 190.085938 C 174.734375 189.847656 174.054688 189.703125 173.480469 189.378906 C 172.339844 188.730469 171.25 187.992188 170.144531 187.277344 C 168.949219 186.503906 167.785156 185.667969 166.363281 185.3125 C 166.113281 185.25 165.882812 185.132812 165.636719 185.070312 M 237.140625 157.867188 C 237.121094 157.695312 237.132812 157.515625 237.082031 157.355469 C 236.851562 156.632812 236.613281 155.910156 236.355469 155.195312 C 236.246094 154.886719 236.09375 154.589844 235.949219 154.289062 C 235.921875 154.238281 235.851562 154.207031 235.800781 154.167969 C 235.765625 154.234375 235.707031 154.296875 235.703125 154.363281 C 235.582031 155.8125 235.394531 157.257812 235.382812 158.703125 C 235.375 159.816406 235.558594 160.9375 235.71875 162.042969 C 235.875 163.082031 236.136719 164.105469 236.308594 165.140625 C 236.574219 166.765625 236.816406 168.390625 237.035156 170.023438 C 237.109375 170.578125 237.054688 171.152344 237.109375 171.710938 C 237.246094 173.167969 237.414062 174.625 237.570312 176.082031 C 237.632812 176.636719 237.65625 177.199219 237.777344 177.742188 C 238.039062 178.878906 238.445312 179.996094 238.621094 181.144531 C 238.828125 182.535156 238.808594 183.953125 238.980469 185.347656 C 239.203125 187.144531 238.5 188.582031 237.277344 189.804688 C 236.851562 190.234375 236.257812 190.507812 235.730469 190.832031 C 235.269531 191.117188 234.8125 191.449219 234.308594 191.636719 C 233.285156 192.015625 232.21875 192.285156 231.183594 192.644531 C 230.089844 193.027344 229.03125 193.535156 227.917969 193.851562 C 226.953125 194.121094 225.933594 194.238281 224.933594 194.355469 C 224.210938 194.441406 223.46875 194.371094 222.742188 194.445312 C 221.523438 194.570312 220.3125 194.832031 219.089844 194.894531 C 217.703125 194.96875 216.304688 194.957031 214.917969 194.859375 C 213.417969 194.757812 211.933594 194.492188 210.4375 194.34375 C 209.242188 194.222656 208.039062 194.140625 206.835938 194.109375 C 205.128906 194.066406 203.390625 193.886719 201.71875 194.132812 C 199.832031 194.414062 197.921875 193.941406 196.070312 194.460938 C 196.058594 194.464844 196.042969 194.457031 196.027344 194.460938 C 195.917969 194.496094 195.808594 194.53125 195.695312 194.566406 C 195.8125 194.640625 195.925781 194.773438 196.046875 194.785156 C 196.679688 194.832031 197.316406 194.867188 197.953125 194.871094 C 199.402344 194.878906 200.851562 194.835938 202.300781 194.878906 C 203.820312 194.925781 205.339844 195.066406 206.859375 195.136719 C 207.691406 195.175781 208.527344 195.132812 209.359375 195.171875 C 209.785156 195.195312 210.203125 195.398438 210.621094 195.394531 C 211.539062 195.386719 212.460938 195.234375 213.378906 195.257812 C 214.554688 195.285156 215.726562 195.460938 216.902344 195.515625 C 219.515625 195.636719 222.132812 195.714844 224.746094 195.820312 C 225.296875 195.839844 225.855469 195.972656 226.398438 195.925781 C 227.292969 195.851562 228.183594 195.683594 229.074219 195.542969 C 229.339844 195.5 231.898438 194.761719 232.164062 194.753906 C 232.472656 194.746094 232.242188 195.050781 232.542969 195.117188 C 235.714844 194.53125 230.914062 195.65625 230.910156 195.746094 C 230.910156 195.796875 230.773438 195.863281 230.691406 195.882812 C 229.527344 196.125 228.371094 196.527344 227.199219 196.570312 C 224.203125 196.679688 221.199219 196.65625 218.199219 196.625 C 216.890625 196.613281 215.589844 196.402344 214.28125 196.371094 C 212.28125 196.324219 210.277344 196.378906 208.277344 196.347656 C 206.757812 196.324219 205.238281 196.195312 203.71875 196.171875 C 201.351562 196.140625 198.984375 196.152344 196.617188 196.15625 C 195.285156 196.160156 193.953125 196.132812 192.628906 196.222656 C 191.375 196.304688 190.125 196.5 188.882812 196.691406 C 187.8125 196.855469 186.75 197.0625 185.699219 197.308594 C 185.433594 197.367188 185.132812 197.613281 185.019531 197.855469 C 184.902344 198.105469 184.992188 198.445312 184.992188 198.75 C 185.1875 198.667969 185.375 198.542969 185.582031 198.503906 C 187.320312 198.183594 189.054688 197.8125 190.804688 197.582031 C 192.746094 197.332031 194.699219 197.152344 196.652344 197.058594 C 198.289062 196.980469 199.9375 197.035156 201.578125 197.105469 C 202.738281 197.152344 203.890625 197.300781 205.046875 197.4375 C 207.007812 197.671875 208.96875 197.925781 210.929688 198.1875 C 211.949219 198.320312 212.960938 198.539062 213.984375 198.625 C 215.496094 198.746094 217.019531 198.796875 218.539062 198.863281 C 219.640625 198.910156 220.746094 198.933594 221.847656 198.957031 C 222.265625 198.96875 222.6875 198.96875 223.105469 198.945312 C 224.183594 198.894531 225.261719 198.796875 226.34375 198.773438 C 228.078125 198.738281 229.816406 198.773438 231.550781 198.734375 C 232.5625 198.710938 233.574219 198.632812 234.582031 198.523438 C 235.6875 198.40625 236.789062 198.226562 237.890625 198.058594 C 238.199219 198.015625 238.503906 197.855469 238.800781 197.878906 C 239.007812 197.890625 239.199219 198.121094 239.398438 198.253906 C 239.328125 198.34375 239.265625 198.496094 239.179688 198.511719 C 237.933594 198.746094 236.6875 199.039062 235.425781 199.160156 C 233.351562 199.363281 231.261719 199.472656 229.175781 199.582031 C 228.34375 199.625 227.503906 199.542969 226.667969 199.535156 C 225.472656 199.53125 224.277344 199.511719 223.082031 199.550781 C 221.636719 199.601562 220.191406 199.769531 218.746094 199.769531 C 217.496094 199.773438 216.242188 199.621094 214.988281 199.527344 C 213.648438 199.429688 212.308594 199.359375 210.976562 199.203125 C 209.324219 199.015625 207.683594 198.742188 206.039062 198.53125 C 205.167969 198.417969 204.292969 198.355469 203.421875 198.285156 C 202.503906 198.210938 201.582031 198.152344 200.664062 198.097656 C 199.925781 198.054688 199.179688 198.0625 198.449219 197.972656 C 197.667969 197.875 196.984375 198.191406 196.257812 198.308594 C 194.714844 198.5625 193.125 198.535156 191.554688 198.640625 C 190.652344 198.699219 189.75 198.792969 188.847656 198.878906 C 187.816406 198.976562 186.785156 199.164062 185.753906 199.160156 C 185.113281 199.15625 184.933594 199.402344 184.945312 199.910156 C 184.953125 200.363281 185.046875 200.8125 185.078125 201.265625 C 185.113281 201.714844 185.328125 201.835938 185.761719 201.730469 C 186.574219 201.539062 187.394531 201.253906 188.21875 201.222656 C 189.566406 201.171875 190.921875 201.28125 192.273438 201.347656 C 193.449219 201.40625 194.621094 201.519531 195.796875 201.566406 C 197.136719 201.621094 198.476562 201.582031 199.808594 201.671875 C 201.792969 201.800781 203.769531 202.011719 205.75 202.183594 C 206.949219 202.292969 208.144531 202.421875 209.347656 202.492188 C 210.449219 202.554688 211.554688 202.585938 212.65625 202.570312 C 213.617188 202.558594 214.574219 202.433594 215.53125 202.410156 C 217.121094 202.375 218.710938 202.378906 220.296875 202.371094 C 220.597656 202.367188 220.902344 202.414062 221.199219 202.378906 C 222.117188 202.265625 223.027344 202.085938 223.949219 201.996094 C 225.535156 201.847656 227.128906 201.742188 228.722656 201.632812 C 229.167969 201.601562 229.617188 201.636719 230.0625 201.59375 C 231.019531 201.503906 231.96875 201.34375 232.925781 201.28125 C 234.464844 201.179688 236.003906 201.128906 237.546875 201.070312 C 238.863281 201.023438 240.179688 201.027344 241.492188 200.953125 C 242.148438 200.917969 242.789062 200.742188 243.441406 200.671875 C 244.171875 200.597656 244.90625 200.542969 245.640625 200.535156 C 246.109375 200.53125 246.578125 200.699219 246.820312 200.074219 C 246.886719 199.898438 247.21875 199.757812 247.449219 199.71875 C 248.789062 199.476562 249.144531 198.738281 248.402344 197.625 C 248.230469 197.371094 247.960938 197.039062 247.707031 197.011719 C 246.984375 196.933594 246.246094 197.011719 245.515625 196.992188 C 245.257812 196.984375 243.121094 197 242.867188 196.933594 C 243.0625 196.746094 242.628906 196.441406 242.863281 196.34375 C 243.511719 196.078125 246.828125 196.609375 247.394531 195.851562 C 247.425781 195.804688 247.53125 195.820312 247.578125 195.785156 C 247.636719 195.738281 247.722656 195.65625 247.710938 195.609375 C 247.511719 194.65625 247.332031 193.699219 247.074219 192.765625 C 246.945312 192.285156 246.410156 191.789062 246.503906 191.402344 C 246.777344 190.25 246.359375 189.210938 246.199219 188.136719 C 246.0625 187.179688 245.882812 186.226562 245.664062 185.289062 C 245.429688 184.296875 245.125 183.324219 244.84375 182.34375 C 244.5625 181.347656 244.253906 180.359375 244 179.355469 C 243.78125 178.480469 243.667969 177.578125 243.433594 176.707031 C 243.21875 175.90625 242.910156 175.128906 242.636719 174.34375 C 242.203125 173.09375 241.777344 171.84375 241.324219 170.601562 C 240.863281 169.320312 240.382812 168.046875 239.890625 166.777344 C 239.492188 165.746094 239.058594 164.730469 238.648438 163.703125 C 238.527344 163.394531 238.488281 163.035156 238.304688 162.769531 C 237.265625 161.28125 237.589844 159.484375 237.140625 157.867188 Z M 228.574219 135.773438 C 227.074219 135.84375 225.609375 136.019531 224.164062 136.578125 C 223.269531 136.921875 222.703125 137.167969 222.792969 138.277344 C 222.917969 139.738281 222.832031 141.214844 222.847656 142.683594 C 222.871094 144.660156 222.929688 146.632812 222.933594 148.605469 C 222.933594 150.371094 222.773438 152.136719 222.882812 153.890625 C 223.019531 156.027344 223.351562 158.152344 223.621094 160.28125 C 223.832031 161.964844 224.054688 163.648438 224.308594 165.328125 C 224.519531 166.730469 224.816406 168.125 225.003906 169.53125 C 225.207031 171.078125 225.351562 172.632812 225.480469 174.1875 C 225.554688 175.0625 225.472656 175.957031 225.597656 176.824219 C 225.78125 178.097656 226.136719 179.308594 225.328125 180.558594 C 224.726562 181.484375 224.460938 182.621094 223.382812 183.210938 C 222.867188 183.488281 222.347656 183.761719 221.871094 184.09375 C 220.59375 184.984375 219.078125 185.261719 217.625 185.675781 C 216.597656 185.96875 215.511719 186.105469 214.4375 186.226562 C 212.644531 186.429688 210.84375 186.574219 209.042969 186.722656 C 206.691406 186.917969 204.335938 187.097656 201.980469 187.285156 C 201.929688 187.289062 201.871094 187.296875 201.824219 187.320312 C 200.84375 187.835938 199.863281 188.347656 198.886719 188.867188 C 197.253906 189.738281 195.621094 190.609375 193.988281 191.480469 C 192.886719 192.070312 191.785156 192.660156 190.6875 193.257812 C 190.570312 193.320312 190.480469 193.429688 190.378906 193.515625 C 190.515625 193.554688 190.660156 193.636719 190.789062 193.621094 C 191.445312 193.546875 192.101562 193.460938 192.75 193.347656 C 193.363281 193.238281 193.96875 193.082031 194.578125 192.96875 C 195.542969 192.789062 196.507812 192.628906 197.472656 192.457031 C 198.242188 192.324219 199.011719 192.167969 199.785156 192.050781 C 200.328125 191.96875 200.886719 191.984375 201.421875 191.867188 C 202.277344 191.675781 203.066406 191.679688 203.820312 192.195312 C 203.964844 192.292969 204.246094 192.21875 204.457031 192.183594 C 204.6875 192.144531 204.910156 191.996094 205.132812 191.996094 C 206.445312 192 207.761719 192.003906 209.070312 192.058594 C 210.535156 192.121094 211.992188 192.289062 213.453125 192.316406 C 215.179688 192.347656 216.914062 192.371094 218.632812 192.226562 C 220.8125 192.039062 222.972656 191.679688 225.140625 191.390625 C 226.363281 191.230469 227.585938 191.207031 228.710938 190.484375 C 229.402344 190.035156 230.140625 189.695312 230.820312 189.164062 C 232.070312 188.1875 232.410156 186.832031 232.914062 185.511719 C 232.953125 185.40625 232.925781 185.273438 232.933594 185.15625 C 232.957031 184.664062 232.996094 184.171875 233.007812 183.683594 C 233.042969 182.398438 233.082031 181.113281 233.089844 179.832031 C 233.09375 179.339844 233.007812 178.84375 232.980469 178.351562 C 232.902344 176.992188 232.886719 175.625 232.75 174.269531 C 232.550781 172.25 232.210938 170.242188 232.035156 168.21875 C 231.882812 166.484375 231.878906 164.738281 231.792969 162.996094 C 231.726562 161.667969 231.625 160.339844 231.546875 159.011719 C 231.46875 157.710938 231.386719 156.410156 231.328125 155.105469 C 231.277344 154.050781 231.269531 152.992188 231.21875 151.933594 C 231.160156 150.675781 231.09375 149.414062 230.992188 148.152344 C 230.917969 147.21875 230.703125 146.289062 230.695312 145.355469 C 230.683594 143.804688 230.832031 142.253906 230.839844 140.699219 C 230.839844 139.773438 230.726562 138.847656 230.613281 137.921875 C 230.558594 137.453125 230.472656 136.957031 230.261719 136.539062 C 229.933594 135.878906 229.328125 135.636719 228.574219 135.773438 Z M 211.308594 132.605469 C 211.324219 132.6875 211.351562 132.769531 211.371094 132.847656 C 211.292969 132.8125 211.210938 132.785156 211.132812 132.742188 M 210.523438 133.347656 C 209.390625 133.910156 208.226562 134.410156 207.105469 134.992188 C 206.453125 135.328125 205.859375 135.777344 205.242188 136.175781 C 204.578125 136.605469 203.957031 137.121094 203.246094 137.449219 C 202.042969 138.007812 200.777344 138.449219 199.539062 138.9375 C 198.46875 139.355469 197.417969 139.839844 196.214844 139.796875 C 195.898438 139.785156 195.570312 139.867188 195.253906 139.941406 C 193.710938 140.296875 192.191406 140.78125 190.628906 140.996094 C 189.425781 141.164062 188.671875 141.964844 187.933594 142.636719 C 187.03125 143.457031 186.464844 144.640625 185.769531 145.675781 C 185.324219 146.328125 184.898438 146.992188 184.480469 147.664062 C 184.402344 147.789062 184.351562 147.964844 184.371094 148.105469 C 184.523438 149.199219 184.785156 150.28125 184.847656 151.375 C 184.992188 153.988281 185.121094 156.605469 185.113281 159.222656 C 185.101562 161.648438 184.921875 164.074219 184.773438 166.496094 C 184.671875 168.171875 184.472656 169.84375 184.359375 171.519531 C 184.242188 173.269531 184.148438 175.023438 184.09375 176.773438 C 184.058594 177.972656 184.105469 179.171875 184.117188 180.371094 C 184.132812 182.425781 184.121094 184.484375 184.179688 186.539062 C 184.203125 187.414062 184.378906 188.28125 184.476562 189.152344 C 184.589844 190.113281 184.6875 191.078125 184.808594 192.039062 C 184.84375 192.332031 184.996094 192.421875 185.230469 192.164062 C 185.414062 191.964844 185.582031 191.738281 185.800781 191.589844 C 187.582031 190.390625 189.375 189.203125 191.171875 188.019531 C 192.203125 187.339844 193.222656 186.636719 194.289062 186.015625 C 195.636719 185.230469 197.019531 184.503906 198.398438 183.78125 C 198.640625 183.652344 198.957031 183.675781 199.226562 183.59375 C 199.769531 183.425781 200.300781 183.214844 200.847656 183.058594 C 201.546875 182.863281 202.261719 182.707031 202.972656 182.535156 C 203.367188 182.441406 203.761719 182.332031 204.160156 182.261719 C 204.464844 182.210938 204.78125 182.179688 205.089844 182.199219 C 205.335938 182.21875 205.585938 182.398438 205.816406 182.367188 C 206.363281 182.292969 206.890625 182.117188 207.433594 182.019531 C 207.84375 181.941406 208.273438 181.960938 208.679688 181.871094 C 210.085938 181.558594 211.484375 181.214844 212.886719 180.882812 C 212.910156 180.96875 216.191406 179.789062 216.21875 179.875 C 217.304688 179.457031 215.136719 180.308594 216.21875 179.875 C 216.414062 179.796875 216.582031 179.644531 216.738281 179.5 C 217.878906 178.445312 218.21875 177.078125 218.214844 175.621094 C 218.214844 175.0625 217.964844 174.511719 217.902344 173.949219 C 217.8125 173.074219 217.835938 172.191406 217.726562 171.320312 C 217.535156 169.828125 217.230469 168.351562 217.058594 166.859375 C 216.742188 164.101562 216.484375 161.339844 216.210938 158.582031 C 216.167969 158.148438 216.15625 157.710938 216.140625 157.277344 C 216.113281 156.472656 216.023438 155.660156 216.078125 154.863281 C 216.164062 153.644531 216.382812 152.4375 216.488281 151.222656 C 216.574219 150.21875 216.558594 149.207031 216.628906 148.203125 C 216.675781 147.546875 216.859375 146.898438 216.875 146.242188 C 216.910156 144.960938 216.875 143.675781 216.871094 142.394531 C 216.863281 141.179688 216.902344 139.960938 216.855469 138.75 C 216.792969 137.25 216.933594 135.722656 216.230469 134.296875 C 215.492188 132.804688 214.339844 132.261719 212.710938 132.660156 M 183.699219 153.15625 C 183.570312 152.019531 183.460938 150.972656 183.332031 149.925781 C 183.199219 148.867188 182.742188 147.914062 182.367188 146.921875 C 181.851562 145.558594 181.125 144.394531 180.164062 143.335938 C 179.667969 142.789062 179.203125 142.183594 178.609375 141.765625 C 177.214844 140.773438 175.742188 139.894531 174.316406 138.945312 C 173.539062 138.421875 172.816406 137.8125 172.023438 137.3125 C 171.230469 136.816406 170.371094 136.421875 169.554688 135.960938 C 169.042969 135.667969 168.578125 135.289062 168.054688 135.019531 C 167.417969 134.691406 166.738281 134.4375 166.082031 134.140625 C 165.308594 133.789062 164.554688 133.390625 163.765625 133.078125 C 162.453125 132.550781 161.117188 132.089844 159.804688 131.5625 C 159.210938 131.324219 158.675781 130.949219 158.082031 130.710938 C 157.136719 130.328125 156.160156 130.027344 155.210938 129.65625 C 154.363281 129.324219 154.023438 129.335938 153.667969 130.1875 C 153.375 130.878906 153.320312 131.691406 153.289062 132.453125 C 153.191406 134.648438 153.257812 136.855469 153.070312 139.042969 C 152.875 141.324219 152.457031 143.582031 152.140625 145.851562 C 151.921875 147.394531 151.738281 148.945312 151.484375 150.480469 C 151.277344 151.761719 151.011719 153.035156 150.734375 154.304688 C 150.441406 155.628906 150.105469 156.941406 149.792969 158.257812 C 149.429688 159.773438 149.125 161.304688 148.699219 162.800781 C 148.378906 163.933594 147.800781 165.003906 147.542969 166.144531 C 147.214844 167.609375 146.628906 169.011719 146.53125 170.539062 C 146.433594 172.078125 146.425781 173.59375 147.21875 174.964844 C 147.644531 175.695312 148.195312 176.382812 148.808594 176.96875 C 149.164062 177.308594 149.808594 177.339844 150.242188 177.625 C 152.164062 178.902344 154.183594 179.976562 156.394531 180.679688 C 157.515625 181.039062 158.652344 181.351562 159.773438 181.703125 C 160.964844 182.074219 162.15625 182.449219 163.339844 182.847656 C 164.425781 183.214844 165.503906 183.609375 166.585938 183.992188 C 167.257812 184.230469 167.984375 184.378906 168.589844 184.722656 C 170.027344 185.542969 171.460938 186.390625 172.804688 187.347656 C 174.667969 188.675781 176.917969 188.957031 178.984375 189.730469 C 179.761719 190.023438 180.59375 190.234375 181.28125 190.664062 C 181.917969 191.0625 182.390625 191.707031 182.9375 192.242188 C 183.027344 192.328125 183.132812 192.398438 183.230469 192.476562 C 183.277344 192.359375 183.367188 192.238281 183.359375 192.125 C 183.324219 191.296875 183.394531 190.441406 183.195312 189.652344 C 182.648438 187.484375 182.886719 185.277344 182.765625 183.09375 C 182.648438 181.015625 182.859375 178.921875 182.871094 176.832031 C 182.890625 174.398438 182.882812 171.964844 183.257812 169.546875 C 183.375 168.785156 183.515625 168.019531 183.554688 167.25 C 183.605469 166.261719 183.570312 165.265625 183.5625 164.273438 C 183.535156 161.742188 183.972656 159.222656 183.71875 156.679688 C 183.597656 155.488281 183.699219 154.277344 183.699219 153.15625 Z M 151.871094 132.59375 C 151.984375 131.808594 152.089844 131.019531 152.222656 130.234375 C 152.480469 128.730469 154.085938 127.957031 155.488281 128.613281 C 156.179688 128.9375 156.917969 129.160156 157.617188 129.464844 C 158.613281 129.902344 159.578125 130.402344 160.578125 130.820312 C 161.496094 131.199219 162.46875 131.445312 163.371094 131.851562 C 165.015625 132.601562 166.632812 133.417969 168.253906 134.21875 C 169.132812 134.652344 170.007812 135.097656 170.871094 135.566406 C 171.652344 135.992188 172.445312 136.410156 173.175781 136.914062 C 174.210938 137.628906 175.179688 138.433594 176.203125 139.164062 C 176.855469 139.625 177.597656 139.972656 178.230469 140.460938 C 179.121094 141.144531 180.003906 141.855469 180.789062 142.65625 C 181.3125 143.191406 181.695312 143.875 182.066406 144.535156 C 182.476562 145.269531 182.933594 145.949219 183.625 146.449219 C 183.667969 146.484375 183.894531 146.371094 183.949219 146.277344 C 184.503906 145.300781 184.953125 144.261719 185.601562 143.351562 C 186.550781 142.015625 187.773438 140.886719 189.226562 140.109375 C 190.027344 139.679688 191.007812 139.5625 191.917969 139.339844 C 193.15625 139.035156 194.398438 138.738281 195.648438 138.484375 C 196.390625 138.332031 197.179688 138.355469 197.894531 138.136719 C 198.984375 137.808594 200.019531 137.332031 201.085938 136.929688 C 201.84375 136.640625 202.613281 136.375 203.375 136.09375 C 203.484375 136.050781 203.59375 135.992188 203.683594 135.917969 C 204.214844 135.496094 204.722656 135.046875 205.269531 134.648438 C 205.847656 134.226562 206.433594 133.796875 207.066406 133.460938 C 207.679688 133.136719 208.359375 132.929688 209.007812 132.664062 C 209.132812 132.617188 209.238281 132.527344 209.363281 132.480469 C 209.828125 132.289062 210.292969 132.105469 210.765625 131.921875 C 210.925781 131.859375 211.15625 131.863281 211.246094 131.753906 C 211.703125 131.171875 212.324219 131.242188 212.957031 131.246094 C 213.265625 131.246094 213.574219 131.140625 213.886719 131.089844 C 214.027344 131.0625 214.214844 130.976562 214.304688 131.035156 C 214.832031 131.375 215.300781 131.824219 215.859375 132.078125 C 216.167969 132.214844 216.65625 132.125 217 131.988281 C 217.503906 131.792969 217.945312 131.453125 218.417969 131.1875 C 219.453125 130.617188 220.910156 131.46875 221.25 132.328125 C 221.644531 133.3125 222.019531 134.304688 222.375 135.304688 C 222.648438 136.085938 223.214844 136.160156 223.890625 135.738281 C 224.488281 135.363281 225.265625 135.261719 225.964844 135.046875 C 226.144531 134.996094 226.332031 134.976562 226.511719 134.941406 C 227.316406 134.800781 228.132812 134.492188 228.914062 134.5625 C 229.597656 134.628906 230.375 134.988281 230.859375 135.464844 C 231.285156 135.878906 231.453125 136.617188 231.578125 137.246094 C 231.761719 138.15625 231.699219 138.152344 232.601562 137.992188 C 233.25 137.878906 233.910156 137.703125 234.554688 137.730469 C 235.710938 137.773438 236.554688 138.503906 236.902344 139.484375 C 237.320312 140.675781 237.613281 141.96875 237.632812 143.226562 C 237.65625 144.519531 237.257812 145.816406 237.101562 147.117188 C 237.019531 147.785156 236.925781 148.503906 237.09375 149.136719 C 237.601562 151.03125 237.601562 152.964844 237.703125 154.894531 C 237.71875 155.199219 237.796875 155.496094 237.84375 155.800781 C 238.097656 157.367188 238.285156 158.945312 238.632812 160.492188 C 238.886719 161.613281 239.339844 162.699219 239.746094 163.785156 C 240.222656 165.050781 240.753906 166.296875 241.246094 167.5625 C 241.5625 168.378906 241.863281 169.207031 242.152344 170.039062 C 242.613281 171.359375 243.058594 172.683594 243.519531 174.007812 C 243.792969 174.792969 244.136719 175.558594 244.359375 176.359375 C 244.652344 177.4375 244.84375 178.539062 245.113281 179.621094 C 245.351562 180.589844 245.644531 181.542969 245.894531 182.507812 C 246.113281 183.34375 246.296875 184.183594 246.507812 185.019531 C 246.839844 186.34375 247.203125 187.660156 247.515625 188.988281 C 247.75 189.972656 247.898438 190.980469 248.140625 191.964844 C 248.476562 193.332031 248.875 194.679688 249.214844 196.046875 C 249.492188 197.160156 249.796875 198.273438 249.941406 199.40625 C 250.015625 200.003906 249.929688 200.742188 249.617188 201.234375 C 249.304688 201.722656 248.664062 202.097656 248.082031 202.3125 C 246.9375 202.734375 245.75 203.097656 244.550781 203.332031 C 242.070312 203.824219 239.578125 204.277344 237.074219 204.632812 C 235.300781 204.882812 233.5 204.941406 231.714844 205.089844 C 230.554688 205.1875 229.394531 205.316406 228.230469 205.40625 C 226.96875 205.5 225.703125 205.542969 224.441406 205.644531 C 223.46875 205.71875 222.507812 205.875 221.535156 205.945312 C 219.753906 206.074219 217.964844 206.15625 216.183594 206.277344 C 214.855469 206.367188 213.535156 206.503906 212.210938 206.59375 C 210.628906 206.699219 209.042969 206.75 207.464844 206.878906 C 206.195312 206.980469 204.933594 207.214844 203.664062 207.289062 C 201.566406 207.417969 199.464844 207.445312 197.363281 207.550781 C 195.984375 207.621094 194.605469 207.765625 193.230469 207.863281 C 192.796875 207.894531 192.359375 207.855469 191.929688 207.894531 C 190.625 208.011719 189.320312 208.164062 188.015625 208.273438 C 187.066406 208.351562 186.109375 208.351562 185.160156 208.445312 C 184.546875 208.507812 183.949219 208.699219 183.335938 208.796875 C 182.375 208.941406 181.410156 209.078125 180.445312 209.179688 C 179.011719 209.332031 177.570312 209.40625 176.140625 209.585938 C 174.734375 209.757812 173.339844 210.050781 171.933594 210.230469 C 171.375 210.304688 170.796875 210.1875 170.226562 210.214844 C 169.519531 210.25 168.8125 210.335938 168.109375 210.417969 C 165.652344 210.707031 163.191406 210.78125 160.722656 210.671875 C 160.085938 210.644531 159.445312 210.703125 158.808594 210.671875 C 157.453125 210.601562 156.09375 210.414062 154.738281 210.429688 C 152.0625 210.46875 149.386719 210.585938 146.710938 210.730469 C 145.3125 210.808594 143.921875 211.054688 142.519531 211.144531 C 140.773438 211.25 139.019531 211.300781 137.265625 211.328125 C 135.492188 211.359375 133.714844 211.339844 131.9375 211.335938 C 130.796875 211.335938 129.632812 211.472656 128.519531 211.289062 C 127.394531 211.105469 126.117188 211.101562 125.25 210.199219 C 124.9375 209.871094 124.691406 209.316406 124.707031 208.875 C 124.746094 207.65625 124.960938 206.441406 125.070312 205.222656 C 125.144531 204.363281 125.082031 203.488281 125.222656 202.644531 C 125.476562 201.117188 125.824219 199.605469 126.148438 198.089844 C 126.324219 197.28125 126.554688 196.480469 126.722656 195.667969 C 127.023438 194.226562 127.289062 192.78125 127.589844 191.339844 C 127.746094 190.597656 127.964844 189.867188 128.128906 189.125 C 128.242188 188.617188 128.324219 188.105469 128.394531 187.589844 C 128.519531 186.65625 128.589844 185.710938 128.753906 184.78125 C 128.882812 184.070312 129.15625 183.378906 129.308594 182.667969 C 129.460938 181.953125 129.546875 181.222656 129.652344 180.496094 C 129.675781 180.339844 129.644531 180.171875 129.675781 180.015625 C 130.007812 178.449219 130.351562 176.886719 130.675781 175.316406 C 130.820312 174.628906 130.878906 173.921875 131.046875 173.242188 C 131.179688 172.695312 131.429688 172.179688 131.597656 171.644531 C 131.667969 171.40625 131.671875 171.148438 131.703125 170.902344 C 131.726562 170.707031 131.6875 170.476562 131.78125 170.320312 C 132.296875 169.429688 132.214844 168.40625 132.484375 167.484375 C 132.820312 166.335938 132.46875 165.082031 133.207031 164.007812 C 133.46875 163.621094 133.421875 163.035156 133.507812 162.539062 C 133.691406 161.476562 133.863281 160.414062 134.058594 159.351562 C 134.257812 158.265625 134.503906 157.183594 134.675781 156.09375 C 134.851562 154.980469 134.949219 153.855469 135.101562 152.734375 C 135.167969 152.214844 135.261719 151.695312 135.371094 151.175781 C 135.554688 150.289062 135.753906 149.410156 135.957031 148.527344 C 136.226562 147.351562 136.488281 146.179688 136.785156 145.011719 C 136.996094 144.1875 137.726562 144.023438 138.433594 143.863281 C 139.027344 143.730469 139.296875 143.421875 139.429688 142.792969 C 139.632812 141.832031 139.886719 140.816406 140.40625 140.003906 C 140.824219 139.347656 141.734375 139.113281 142.59375 139.175781 C 143.480469 139.242188 143.648438 139.078125 143.398438 138.21875 C 143.171875 137.425781 143.003906 136.664062 143.359375 135.859375 C 143.585938 135.335938 143.664062 134.75 143.917969 134.246094 C 144.488281 133.109375 145.464844 132.605469 146.75 132.632812 C 147.140625 132.644531 147.539062 132.617188 147.925781 132.5625 C 148.988281 132.410156 149.890625 132.789062 150.753906 133.328125 C 150.878906 133.40625 151.003906 133.5 151.140625 133.542969 C 152.222656 133.882812 151.792969 133.027344 151.871094 132.59375 " fill-opacity="1" fill-rule="nonzero"/></g><g clip-path="url(#1f5b319950)"><path fill="#fafef8" d="M 166.285156 96.804688 C 166.394531 94.0625 167.269531 91.730469 169.25 89.835938 C 169.929688 89.183594 170.605469 88.503906 171.367188 87.949219 C 172.304688 87.273438 173.257812 86.589844 174.53125 86.59375 C 174.976562 86.59375 175.414062 86.371094 175.863281 86.296875 C 176.164062 86.246094 176.476562 86.257812 176.785156 86.269531 C 178.730469 86.34375 180.394531 87.082031 181.816406 88.363281 C 182.289062 88.789062 182.792969 89.199219 183.179688 89.695312 C 183.515625 90.121094 183.722656 90.648438 183.957031 91.148438 C 184.195312 91.65625 184.417969 92.175781 184.609375 92.703125 C 184.699219 92.960938 184.8125 93.285156 184.730469 93.519531 C 184.234375 94.90625 184.613281 96.34375 184.429688 97.734375 C 184.167969 99.707031 183.441406 101.535156 181.652344 102.699219 C 180.1875 103.648438 178.527344 104.214844 176.816406 104.464844 C 175.898438 104.601562 174.910156 104.371094 173.96875 104.21875 C 173.105469 104.074219 172.261719 103.832031 171.417969 103.597656 C 170.941406 103.464844 170.46875 103.292969 170.019531 103.09375 C 168.644531 102.476562 167.835938 101.320312 167.28125 100.027344 C 166.839844 99 166.609375 97.882812 166.285156 96.804688 " fill-opacity="1" fill-rule="nonzero"/></g><path fill="#fafef8" d="M 181.132812 124.710938 C 180.1875 124.886719 179.242188 125.027344 178.308594 125.238281 C 177.6875 125.378906 176.933594 125.070312 176.488281 124.367188 C 176.304688 124.074219 176.097656 123.777344 176.003906 123.453125 C 175.929688 123.199219 175.996094 122.902344 176.03125 122.628906 C 176.054688 122.421875 175.945312 123.351562 175.972656 123.144531 C 175.984375 123.050781 176.058594 122.726562 176.03125 122.628906 C 175.972656 122.699219 176.09375 122.558594 176.03125 122.628906 C 176.09375 123.839844 175.832031 123.386719 175.578125 122.359375 C 175.519531 122.277344 175.558594 121.957031 175.550781 121.871094 C 175.445312 120.976562 174.960938 120.125 175.453125 119.171875 C 175.660156 118.765625 175.511719 118.199219 175.59375 117.714844 C 175.628906 117.511719 175.84375 117.335938 175.976562 117.152344 C 176.183594 116.871094 176.394531 116.597656 176.589844 116.3125 C 176.640625 116.242188 176.609375 116.105469 176.664062 116.050781 C 177 115.722656 177.335938 115.398438 177.695312 115.097656 C 177.933594 114.890625 178.1875 114.679688 178.46875 114.546875 C 178.890625 114.34375 179.339844 114.210938 179.773438 114.046875 C 180.105469 113.921875 180.425781 113.726562 180.769531 113.671875 C 181.613281 113.535156 182.476562 113.335938 183.320312 113.390625 C 184.382812 113.460938 185.550781 113.441406 186.398438 114.230469 C 186.90625 114.699219 187.273438 115.324219 187.679688 115.894531 C 188.066406 116.4375 188.53125 116.960938 188.773438 117.5625 C 189.046875 118.234375 190.179688 119.789062 189.9375 120.613281 C 189.9375 120.613281 189.882812 120.5 189.9375 120.613281 C 190.386719 121.605469 189.894531 121.085938 188.976562 121.695312 C 188.269531 122.167969 187.535156 122.601562 186.773438 122.980469 C 185.78125 123.46875 184.773438 123.945312 183.730469 124.308594 " fill-opacity="1" fill-rule="nonzero"/><path fill="#fafef8" d="M 184.707031 133.5 C 184.207031 133.523438 183.707031 133.570312 183.207031 133.566406 C 182.363281 133.5625 181.59375 133.46875 181.039062 132.65625 C 180.785156 132.285156 180.242188 132.046875 179.777344 131.886719 C 179.003906 131.621094 178.980469 131.015625 179.1875 130.5 C 179.316406 130.1875 179.847656 129.917969 180.242188 129.839844 C 181.300781 129.628906 182.410156 129.640625 183.445312 129.367188 C 184.859375 128.996094 186.234375 128.472656 187.601562 127.953125 C 188.882812 127.460938 190.132812 126.882812 191.398438 126.355469 C 191.632812 126.257812 191.886719 126.175781 192.140625 126.148438 C 192.738281 126.082031 192.984375 126.355469 192.957031 126.9375 C 192.921875 127.601562 193.015625 128.285156 192.898438 128.929688 C 192.832031 129.296875 192.46875 129.617188 192.210938 129.941406 C 192.089844 130.089844 191.867188 130.167969 191.757812 130.324219 C 190.84375 131.625 189.652344 132.511719 188.058594 132.863281 C 187.402344 133.007812 186.777344 133.296875 186.125 133.453125 C 185.667969 133.5625 185.1875 133.558594 184.71875 133.605469 C 184.714844 133.570312 184.710938 133.535156 184.707031 133.5 " fill-opacity="1" fill-rule="nonzero"/><path fill="#fafef8" d="M 174.539062 128.488281 C 175.261719 128.488281 176.140625 128.605469 176.972656 128.460938 C 178.296875 128.234375 179.589844 127.839844 180.894531 127.496094 C 181.621094 127.300781 182.351562 127.097656 183.058594 126.847656 C 183.992188 126.519531 184.917969 126.175781 185.820312 125.78125 C 186.808594 125.347656 187.773438 124.859375 188.742188 124.386719 C 189.53125 123.996094 190.371094 123.671875 191.089844 123.179688 C 192.03125 122.527344 193.027344 121.851562 193.714844 120.972656 C 194.445312 120.042969 194.566406 119.804688 193.785156 118.726562 C 193.335938 118.113281 192.933594 117.714844 192.125 117.511719 C 191.625 117.386719 191.289062 117.058594 190.863281 117.550781 C 190.628906 117.339844 190.332031 117.160156 190.191406 116.898438 C 190.132812 116.78125 190.398438 116.332031 190.523438 116.328125 C 190.902344 116.316406 191.28125 116.464844 191.664062 116.523438 C 191.953125 116.570312 192.25 116.621094 192.535156 116.597656 C 193.414062 116.527344 193.9375 117.214844 194.238281 117.71875 C 194.890625 118.816406 195.132812 120.039062 194.667969 121.371094 C 194.574219 121.640625 194.402344 121.816406 194.160156 122.054688 C 194.007812 122.207031 193.957031 122.457031 193.800781 122.601562 C 193.347656 123.035156 192.882812 123.464844 192.378906 123.839844 C 191.84375 124.238281 191.277344 124.605469 190.6875 124.921875 C 190.125 125.222656 189.503906 125.421875 188.921875 125.695312 C 188.652344 125.824219 188.433594 126.050781 188.164062 126.179688 C 187.3125 126.585938 186.445312 126.957031 185.59375 127.359375 C 185.382812 127.457031 185.21875 127.652344 185.007812 127.742188 C 184.578125 127.921875 184.140625 128.085938 183.691406 128.214844 C 182.59375 128.53125 181.492188 128.835938 180.382812 129.113281 C 179.585938 129.3125 178.785156 129.496094 177.976562 129.617188 C 176.972656 129.765625 175.957031 129.859375 174.945312 129.949219 C 173.6875 130.058594 172.835938 129.414062 172.191406 128.433594 C 171.96875 128.09375 171.78125 127.734375 171.550781 127.398438 C 171.015625 126.632812 171.214844 125.886719 171.523438 125.089844 C 171.933594 124.042969 172.691406 123.324219 173.660156 122.851562 C 173.96875 122.703125 174.476562 122.945312 174.894531 123.007812 C 174.757812 123.253906 174.675781 123.640625 174.472656 123.722656 C 173.5625 124.078125 172.496094 125.359375 172.601562 126.304688 C 172.652344 126.757812 173.046875 127.1875 173.328125 127.597656 C 173.496094 127.835938 173.75 128.023438 173.980469 128.214844 C 174.089844 128.304688 174.238281 128.347656 174.539062 128.488281 " fill-opacity="1" fill-rule="nonzero"/><path fill="#fafef8" d="M 201.878906 107.589844 C 202.644531 107.589844 203.414062 107.589844 204.179688 107.585938 C 204.589844 107.585938 204.695312 107.820312 204.472656 108.09375 C 204.191406 108.4375 203.851562 108.746094 203.488281 109.003906 C 202.9375 109.398438 202.335938 109.722656 201.777344 110.109375 C 201.632812 110.210938 201.476562 110.449219 201.5 110.597656 C 201.609375 111.28125 201.699219 111.988281 201.957031 112.625 C 202.144531 113.078125 201.96875 113.347656 201.675781 113.457031 C 201.398438 113.5625 200.914062 113.554688 200.710938 113.382812 C 199.542969 112.382812 199.558594 112.355469 198.335938 113.253906 C 198.019531 113.484375 197.753906 113.78125 197.421875 113.988281 C 197.121094 114.171875 196.761719 114.386719 196.4375 114.375 C 196.101562 114.363281 195.625 114.167969 195.492188 113.914062 C 195.378906 113.691406 195.632812 113.261719 195.769531 112.941406 C 196.070312 112.238281 196.417969 111.554688 196.703125 110.84375 C 196.75 110.734375 196.636719 110.472656 196.523438 110.40625 C 195.804688 110.003906 195.058594 109.644531 194.335938 109.246094 C 194.242188 109.195312 194.140625 109.015625 194.164062 108.925781 C 194.214844 108.742188 194.328125 108.445312 194.445312 108.429688 C 195.074219 108.347656 195.71875 108.351562 196.355469 108.300781 C 196.882812 108.257812 197.40625 108.179688 197.933594 108.128906 C 198.90625 108.035156 199.214844 107.703125 199.335938 106.742188 C 199.382812 106.355469 199.53125 105.96875 199.699219 105.613281 C 199.84375 105.296875 200.058594 105.28125 200.316406 105.578125 C 200.699219 106.015625 200.855469 106.484375 200.847656 107.070312 C 200.84375 107.769531 201.425781 107.621094 201.878906 107.589844 " fill-opacity="1" fill-rule="nonzero"/><path fill="#fafef8" d="M 154.523438 111.410156 C 154.914062 111.4375 155.199219 111.460938 155.480469 111.480469 C 156.335938 111.539062 156.851562 111.214844 157.171875 110.429688 C 157.3125 110.089844 157.441406 109.738281 157.636719 109.433594 C 157.746094 109.269531 158.023438 109.0625 158.164062 109.101562 C 158.371094 109.15625 158.539062 109.398438 158.679688 109.589844 C 158.75 109.683594 158.710938 109.851562 158.753906 109.976562 C 159.085938 111.015625 159.089844 111.003906 160.199219 110.941406 C 160.601562 110.921875 161.015625 110.921875 161.40625 111.003906 C 161.945312 111.113281 162.183594 111.84375 161.792969 112.21875 C 161.226562 112.761719 160.636719 113.300781 159.984375 113.738281 C 159.421875 114.117188 159.191406 114.507812 159.367188 115.175781 C 159.421875 115.375 159.851562 116.707031 159.6875 116.792969 C 159.4375 116.921875 158.453125 116.039062 158.226562 115.914062 C 157.601562 115.574219 156.886719 115.71875 156.527344 116.367188 C 156.144531 117.0625 155.417969 117.21875 154.84375 116.679688 C 154.695312 116.542969 154.660156 116.1875 154.71875 115.96875 C 154.828125 115.558594 155.035156 115.175781 155.222656 114.792969 C 155.449219 114.320312 155.347656 114.007812 154.867188 113.738281 C 154.15625 113.339844 153.484375 112.875 152.804688 112.421875 C 152.714844 112.359375 152.613281 112.160156 152.648438 112.097656 C 152.746094 111.925781 152.890625 111.703125 153.0625 111.660156 C 153.570312 111.53125 154.097656 111.476562 154.523438 111.410156 " fill-opacity="1" fill-rule="nonzero"/><path fill="#fafef8" d="M 210.875 99.300781 C 213.074219 99.4375 214.285156 97.09375 214.210938 95.484375 C 214.191406 95.097656 214.070312 94.71875 214.050781 94.332031 C 214.042969 94.195312 214.1875 94.050781 214.265625 93.90625 C 214.355469 94.019531 214.496094 94.121094 214.527344 94.246094 C 214.722656 95.015625 214.90625 95.789062 215.074219 96.566406 C 215.308594 97.648438 214.136719 99.324219 212.910156 99.890625 C 210.988281 100.773438 209.234375 100.195312 207.578125 99.308594 C 206.125 98.53125 205.585938 96.546875 206.113281 94.96875 C 206.40625 94.097656 207.035156 93.574219 207.777344 93.164062 C 208.03125 93.023438 208.410156 93.089844 208.730469 93.085938 C 208.78125 93.085938 208.894531 93.238281 208.878906 93.28125 C 208.816406 93.429688 208.746094 93.621094 208.621094 93.6875 C 207.117188 94.519531 206.65625 95.753906 207.246094 97.351562 C 207.804688 98.851562 209.109375 99.132812 210.488281 99.296875 C 210.648438 99.316406 210.8125 99.300781 210.875 99.300781 " fill-opacity="1" fill-rule="nonzero"/><path fill="#fafef8" d="M 153.492188 97.652344 C 153.488281 98.226562 154.117188 99.113281 154.574219 98.917969 C 154.964844 98.753906 155.488281 98.148438 155.421875 97.859375 C 155.316406 97.410156 154.820312 96.90625 154.367188 96.730469 C 153.980469 96.582031 153.484375 96.925781 153.492188 97.652344 Z M 154.925781 100.007812 C 153.457031 100.128906 152.792969 99.265625 152.230469 98.320312 C 151.890625 97.75 152.207031 96.722656 152.75 96.335938 C 153.996094 95.445312 155.351562 95.550781 156.347656 96.769531 C 156.5625 97.035156 156.492188 97.859375 156.425781 98.339844 C 156.410156 98.445312 156.410156 98.238281 156.425781 98.339844 C 156.542969 99.128906 155.582031 100.023438 154.925781 100.007812 " fill-opacity="1" fill-rule="nonzero"/><path fill="#fafef8" d="M 170.144531 112.691406 C 170.101562 112.730469 170.0625 112.769531 170.019531 112.808594 C 170.238281 113.035156 170.441406 113.429688 170.679688 113.453125 C 171.15625 113.496094 171.734375 113.464844 172.125 113.230469 C 172.542969 112.972656 172.507812 111.804688 172.195312 111.449219 C 172.101562 111.347656 171.960938 111.257812 171.828125 111.226562 C 171.554688 111.164062 170.152344 112.367188 170.144531 112.652344 C 170.144531 112.664062 170.144531 112.679688 170.144531 112.691406 Z M 169.25 113.277344 C 169.273438 112.816406 169.199219 112.402344 169.332031 112.058594 C 169.460938 111.71875 169.777344 111.433594 170.042969 111.152344 C 170.257812 110.917969 170.554688 110.75 170.75 110.503906 C 171.082031 110.082031 171.492188 109.992188 171.980469 110.132812 C 172.730469 110.347656 173.34375 111.292969 173.371094 112.046875 C 173.402344 112.90625 173.199219 113.628906 172.519531 114.183594 C 171.605469 114.921875 170.050781 114.746094 169.429688 113.804688 C 169.320312 113.636719 169.296875 113.414062 169.25 113.277344 " fill-opacity="1" fill-rule="nonzero"/><path fill="#fafef8" d="M 219.726562 119.980469 C 219.707031 120.957031 218.992188 121.777344 218.019531 121.863281 C 217.457031 121.914062 216.890625 121.875 216.328125 121.863281 C 216.246094 121.863281 216.148438 121.792969 216.097656 121.726562 C 215.894531 121.46875 215.695312 121.207031 215.523438 120.929688 C 215.441406 120.796875 215.421875 119.480469 215.375 119.328125 C 215.527344 119.304688 215.835938 119.929688 215.988281 119.925781 C 216.066406 119.921875 216.027344 120.433594 216.058594 120.484375 C 216.570312 121.320312 217.257812 120.914062 217.910156 120.742188 C 218.480469 120.59375 218.871094 119.972656 218.730469 119.464844 C 218.535156 118.765625 217.96875 118.429688 217.3125 118.699219 C 217.074219 118.796875 216.941406 119.109375 216.738281 119.300781 C 216.5 119.519531 216.238281 119.71875 215.988281 119.925781 C 216.058594 120.484375 215.316406 119.414062 215.375 119.328125 C 215.742188 118.792969 216.414062 118.230469 216.914062 117.824219 C 217.195312 117.597656 217.734375 117.511719 218.105469 117.589844 C 218.726562 117.722656 219.742188 119.347656 219.726562 119.980469 " fill-opacity="1" fill-rule="nonzero"/><path fill="#fafef8" d="M 211.660156 95.023438 C 211.578125 96.152344 210.644531 97.542969 209.175781 97.589844 C 208.976562 97.59375 208.765625 97.28125 208.5625 97.113281 C 208.71875 96.984375 208.863281 96.765625 209.039062 96.734375 C 210.386719 96.503906 211.195312 95.078125 210.445312 94.109375 C 210.21875 93.816406 209.710938 93.730469 209.339844 93.542969 C 209.164062 93.457031 208.789062 93.789062 208.621094 93.6875 C 208.804688 93.574219 208.542969 93.09375 208.730469 93.085938 C 209.527344 93.066406 211.730469 93.808594 211.660156 95.023438 " fill-opacity="1" fill-rule="nonzero"/><path fill="#fafef8" d="M 196.210938 89.054688 C 196.828125 89.441406 197.359375 89.714844 197.804688 90.082031 C 197.9375 90.195312 197.929688 90.625 197.820312 90.816406 C 197.710938 91.007812 197.394531 91.082031 197.167969 91.207031 C 197.074219 90.996094 196.96875 90.785156 196.882812 90.570312 C 196.828125 90.4375 196.832031 90.269531 196.75 90.15625 C 196.648438 90.015625 196.484375 89.914062 196.347656 89.796875 C 196.296875 89.933594 196.261719 90.085938 196.195312 90.214844 C 195.976562 90.621094 195.890625 90.949219 196.535156 90.988281 C 196.59375 90.992188 197.484375 90.964844 197.539062 91.035156 C 197.433594 91.109375 196.472656 91.414062 196.394531 91.390625 C 195.980469 91.285156 195.488281 91.226562 195.203125 90.960938 C 195.015625 90.785156 195 90.222656 195.148438 89.964844 C 195.347656 89.621094 195.777344 89.40625 196.210938 89.054688 " fill-opacity="1" fill-rule="nonzero"/><path fill="#fafef8" d="M 242.589844 194.554688 C 241.820312 194.554688 241.023438 194.5625 240.230469 194.550781 C 240.113281 194.546875 239.929688 194.492188 239.890625 194.410156 C 239.691406 193.964844 239.570312 194.007812 239.277344 194.375 C 239.121094 194.570312 238.699219 194.675781 238.425781 194.632812 C 238.214844 194.601562 238.019531 194.289062 237.898438 194.0625 C 237.867188 194 238.136719 193.664062 238.28125 193.65625 C 239.28125 193.59375 240.28125 193.566406 241.285156 193.5625 C 242.457031 193.554688 243.632812 193.582031 244.808594 193.589844 C 244.882812 193.589844 244.96875 193.492188 245.03125 193.507812 C 247.96875 192.664062 247.601562 193.210938 247.757812 193.277344 C 247.667969 193.386719 245.34375 193.988281 245.234375 194.015625 C 244.371094 194.210938 243.5 194.375 242.589844 194.554688 " fill-opacity="1" fill-rule="nonzero"/><path fill="#fafef8" d="M 242.910156 196.367188 C 243.214844 196.445312 243.386719 196.460938 243.527344 196.535156 C 243.652344 196.597656 243.742188 196.722656 243.851562 196.820312 C 243.734375 196.917969 243.628906 197.070312 243.492188 197.097656 C 242.433594 197.34375 240.402344 198.238281 239.335938 198.445312 C 239.179688 198.476562 238.398438 198.214844 238.226562 198.160156 C 238.351562 198.058594 240.019531 197.382812 240.164062 197.328125 C 241.109375 196.984375 242.066406 196.660156 242.910156 196.367188 " fill-opacity="1" fill-rule="nonzero"/><path fill="#fafef8" d="M 232.210938 195.382812 C 232.140625 195.332031 231.996094 195.226562 231.855469 195.125 C 232.039062 194.96875 232.222656 194.6875 232.410156 194.6875 C 232.835938 194.683594 233.265625 194.828125 233.546875 194.355469 C 233.566406 194.324219 233.691406 194.316406 233.738281 194.34375 C 234.160156 194.59375 237.070312 194.082031 237.507812 193.707031 C 237.527344 193.6875 241.132812 193.886719 240.46875 194.121094 C 240.15625 194.234375 240.15625 194.234375 239.949219 194.5 C 239.914062 194.550781 234.988281 194.925781 234.941406 194.933594 C 234.082031 195.109375 233.207031 195.226562 232.210938 195.382812 " fill-opacity="1" fill-rule="nonzero"/><path fill="#fafef8" d="M 236.195312 194.925781 C 235.941406 194.722656 235.777344 194.597656 235.617188 194.46875 C 235.804688 194.328125 235.972656 194.121094 236.179688 194.078125 C 236.300781 194.050781 236.476562 194.289062 236.628906 194.410156 C 236.503906 194.554688 236.382812 194.707031 236.195312 194.925781 " fill-opacity="1" fill-rule="nonzero"/><path fill="#fafef8" d="M 234.972656 194.132812 C 234.976562 194.121094 234.976562 194.105469 234.980469 194.105469 C 234.988281 194.101562 235.003906 194.109375 235.011719 194.109375 C 235.011719 194.121094 235.011719 194.136719 235.003906 194.140625 C 234.996094 194.144531 234.980469 194.136719 234.972656 194.132812 " fill-opacity="1" fill-rule="nonzero"/><path fill="#fafef8" d="M 163.472656 184.648438 C 163.457031 184.652344 163.449219 184.664062 163.4375 184.660156 C 163.433594 184.660156 163.429688 184.644531 163.421875 184.636719 C 163.4375 184.640625 163.453125 184.644531 163.472656 184.648438 " fill-opacity="1" fill-rule="nonzero"/><path fill="#fafef8" d="M 141.101562 142.65625 C 141.113281 142.660156 141.125 142.664062 141.136719 142.667969 C 141.132812 142.679688 141.132812 142.695312 141.125 142.699219 C 141.117188 142.707031 141.101562 142.695312 141.089844 142.691406 C 141.09375 142.679688 141.097656 142.667969 141.101562 142.65625 " fill-opacity="1" fill-rule="nonzero"/><g fill="#ffffff" fill-opacity="1"><g transform="translate(135.397094, 282.016652)"><g><path d="M 9.28125 -10.449219 C 8.359375 -10.558594 7.765625 -10.601562 6.953125 -10.449219 C 6.136719 -10.207031 4.683594 -9.722656 3.738281 -8.074219 L 3.5625 -8.140625 L 3.5625 -11.769531 C 3.5625 -12.097656 3.738281 -13.992188 3.652344 -14.539062 C 3.5625 -15.179688 2.683594 -15.222656 2.484375 -14.5625 C 2.464844 -14.386719 2.574219 -12.671875 2.507812 -11.703125 C 2.441406 -10.40625 2.597656 -9.019531 2.53125 -7.632812 C 2.464844 -6.578125 2.597656 -5.585938 2.550781 -4.75 C 2.507812 -3.980469 2.507812 -2 2.507812 -1.101562 C 2.507812 -0.507812 3.628906 -0.484375 3.652344 -1.078125 C 3.652344 -1.144531 3.542969 -2.574219 3.738281 -2.949219 C 4.554688 -1.386719 6.402344 -0.460938 8.226562 -0.441406 C 8.886719 -0.417969 10.292969 -0.550781 11.59375 -1.5625 C 13.042969 -2.75 13.59375 -4.839844 13.089844 -6.90625 C 12.78125 -8.25 11.308594 -10.164062 9.28125 -10.449219 Z M 9.480469 -1.738281 C 7.632812 -1.144531 6.269531 -1.582031 4.949219 -2.773438 C 4.445312 -3.191406 3.804688 -4.773438 3.960938 -6.203125 C 4.113281 -7.632812 6.027344 -9.589844 8.269531 -9.503906 C 10.492188 -9.4375 11.964844 -7.65625 12.144531 -6.003906 C 12.339844 -3.828125 11.285156 -2.308594 9.480469 -1.738281 Z M 9.480469 -1.738281 "/></g></g></g><g fill="#ffffff" fill-opacity="1"><g transform="translate(150.024485, 282.016652)"><g><path d="M 11 -9.085938 C 9.613281 -10.472656 8.007812 -10.910156 5.917969 -10.558594 C 3.671875 -10.207031 1.9375 -8.359375 1.628906 -6.597656 C 1.210938 -4.265625 2.242188 -2.199219 3.585938 -1.210938 C 4.839844 -0.308594 6.226562 -0.132812 7.433594 -0.175781 C 10.976562 -0.285156 12.320312 -3.058594 12.40625 -5.082031 C 12.472656 -6.621094 11.921875 -8.117188 11 -9.085938 Z M 10.382812 -2.617188 C 9.480469 -1.539062 7.632812 -0.925781 5.652344 -1.472656 C 4.574219 -1.78125 3.078125 -2.640625 2.683594 -5.039062 C 2.75 -7.742188 4.15625 -9.4375 6.511719 -9.636719 C 9.414062 -9.898438 11.261719 -7.589844 11.285156 -5.300781 C 11.308594 -4.136719 11 -3.300781 10.382812 -2.617188 Z M 10.382812 -2.617188 "/></g></g></g><g fill="#ffffff" fill-opacity="1"><g transform="translate(163.991998, 282.016652)"><g><path d="M 11 -9.085938 C 9.613281 -10.472656 8.007812 -10.910156 5.917969 -10.558594 C 3.671875 -10.207031 1.9375 -8.359375 1.628906 -6.597656 C 1.210938 -4.265625 2.242188 -2.199219 3.585938 -1.210938 C 4.839844 -0.308594 6.226562 -0.132812 7.433594 -0.175781 C 10.976562 -0.285156 12.320312 -3.058594 12.40625 -5.082031 C 12.472656 -6.621094 11.921875 -8.117188 11 -9.085938 Z M 10.382812 -2.617188 C 9.480469 -1.539062 7.632812 -0.925781 5.652344 -1.472656 C 4.574219 -1.78125 3.078125 -2.640625 2.683594 -5.039062 C 2.75 -7.742188 4.15625 -9.4375 6.511719 -9.636719 C 9.414062 -9.898438 11.261719 -7.589844 11.285156 -5.300781 C 11.308594 -4.136719 11 -3.300781 10.382812 -2.617188 Z M 10.382812 -2.617188 "/></g></g></g><g fill="#ffffff" fill-opacity="1"><g transform="translate(177.959511, 282.016652)"><g><path d="M 9.328125 -3.628906 C 8.6875 -4.027344 7.964844 -4.882812 6.3125 -6.136719 C 7.742188 -7.105469 8.445312 -7.5 8.84375 -7.722656 C 9.546875 -8.183594 10.230469 -8.667969 10.867188 -9.152344 C 11.351562 -9.546875 10.824219 -10.273438 10.359375 -10.007812 C 8.996094 -9.152344 8.734375 -9.039062 7.609375 -8.25 C 6.644531 -7.5 5.632812 -6.929688 3.628906 -5.542969 C 3.5625 -6.90625 3.519531 -9.085938 3.542969 -9.988281 C 3.5625 -11.460938 3.609375 -13.527344 3.585938 -14.519531 C 3.5625 -15.132812 2.484375 -15.199219 2.375 -14.539062 C 2.332031 -14.296875 2.464844 -12.582031 2.441406 -12.164062 C 2.375 -11.371094 2.507812 -8.910156 2.464844 -8.382812 C 2.375 -7.347656 2.441406 -5.675781 2.441406 -4.597656 C 2.441406 -3.585938 2.417969 -1.277344 2.464844 -0.878906 C 2.507812 -0.265625 3.542969 -0.242188 3.585938 -0.945312 C 3.609375 -1.277344 3.519531 -2.992188 3.628906 -4.332031 C 4.203125 -4.730469 4.75 -5.082031 5.410156 -5.5 C 6.488281 -4.621094 7.0625 -4.070312 7.699219 -3.585938 C 8.800781 -2.773438 8.820312 -2.507812 9.546875 -2 C 10.164062 -1.628906 10.800781 -0.8125 11.285156 -0.507812 C 11.726562 -0.265625 12.320312 -0.902344 11.878906 -1.386719 C 11.351562 -1.9375 10.207031 -2.992188 9.328125 -3.628906 Z M 9.328125 -3.628906 "/></g></g></g><g fill="#ffffff" fill-opacity="1"><g transform="translate(191.311126, 282.016652)"><g/></g></g><g fill="#ffffff" fill-opacity="1"><g transform="translate(200.109561, 282.016652)"><g><path d="M 8.027344 -5.875 C 6.335938 -6.269531 3.234375 -6.644531 3.234375 -8.074219 C 3.234375 -9.570312 5.34375 -9.898438 6.597656 -9.855469 C 7.433594 -9.8125 9.019531 -9.394531 9.503906 -8.335938 C 9.746094 -7.742188 10.648438 -7.984375 10.515625 -8.535156 C 10.273438 -9.613281 8.601562 -10.777344 6.226562 -10.777344 C 3.980469 -10.777344 2.113281 -9.523438 2.113281 -8.09375 C 2.113281 -6.070312 5.125 -5.585938 6.46875 -5.300781 C 8.074219 -4.972656 9.855469 -4.378906 9.855469 -2.96875 C 9.855469 -1.582031 7.984375 -1.078125 6.335938 -1.078125 C 4.664062 -1.078125 3.125 -2.398438 2.597656 -3.386719 C 2.132812 -4.222656 1.144531 -3.585938 1.496094 -2.925781 C 2.308594 -1.582031 3.828125 -0.375 6.09375 -0.199219 C 6.644531 -0.152344 7.191406 -0.175781 7.875 -0.242188 C 9.4375 -0.417969 11 -1.363281 11 -2.882812 C 11 -4.421875 9.394531 -5.585938 8.027344 -5.875 Z M 8.027344 -5.875 "/></g></g></g><g fill="#ffffff" fill-opacity="1"><g transform="translate(212.273393, 282.016652)"><g><path d="M 3.367188 -15.023438 C 3.058594 -15.375 1.980469 -15.355469 1.695312 -15.003906 C 1.429688 -14.585938 1.230469 -13.75 1.582031 -13.285156 C 2.066406 -12.738281 3.035156 -12.933594 3.410156 -13.265625 C 3.847656 -13.703125 3.628906 -14.585938 3.367188 -15.023438 Z M 3.253906 -4.089844 C 3.167969 -5.300781 3.300781 -6.335938 3.253906 -7.390625 C 3.210938 -8.402344 3.367188 -9.261719 3.300781 -10.054688 C 3.234375 -10.824219 2.023438 -10.824219 1.9375 -10.054688 C 1.824219 -9.238281 2.023438 -8.226562 1.957031 -7.371094 C 1.871094 -6.355469 1.9375 -4.992188 1.871094 -3.9375 C 1.847656 -2.816406 1.804688 -1.519531 1.890625 -0.902344 C 2.023438 -0.328125 3.191406 -0.285156 3.253906 -1.035156 C 3.300781 -1.519531 3.320312 -3.125 3.253906 -4.089844 Z M 3.253906 -4.089844 "/></g></g></g><g fill="#ffffff" fill-opacity="1"><g transform="translate(217.420476, 282.016652)"><g><path d="M 7.414062 -9.875 C 6.90625 -9.921875 6.203125 -9.746094 4.949219 -9.921875 C 4.925781 -10.667969 5.039062 -11.8125 4.972656 -12.1875 C 4.839844 -12.714844 4.992188 -14.121094 4.949219 -14.585938 C 4.863281 -15.199219 3.871094 -15.179688 3.761719 -14.605469 C 3.609375 -13.96875 3.761719 -12.5625 3.761719 -12.078125 C 3.785156 -11.59375 3.785156 -11 3.761719 -9.832031 C 2.707031 -9.8125 1.761719 -9.832031 1.363281 -9.8125 C 0.703125 -9.765625 0.746094 -8.84375 1.386719 -8.777344 C 2.023438 -8.777344 2.816406 -8.800781 3.738281 -8.84375 C 3.804688 -8.226562 3.761719 -5.785156 3.804688 -5.390625 C 3.960938 -4.664062 3.761719 -2.023438 3.761719 -0.878906 C 3.761719 -0.285156 4.882812 -0.242188 4.972656 -0.878906 C 4.992188 -1.539062 4.90625 -2.902344 4.972656 -3.871094 C 4.992188 -4.113281 4.707031 -6.160156 4.972656 -6.6875 C 4.949219 -7.390625 4.949219 -8.269531 4.972656 -8.84375 C 6.027344 -8.84375 6.796875 -8.777344 7.414062 -8.800781 C 8.027344 -8.800781 7.984375 -9.832031 7.414062 -9.875 Z M 7.414062 -9.875 "/></g></g></g><g fill="#ffffff" fill-opacity="1"><g transform="translate(226.17492, 282.016652)"><g><path d="M 11.019531 -8.777344 C 9.941406 -10.117188 7.964844 -10.691406 5.917969 -10.40625 C 3.71875 -10.117188 2.242188 -8.535156 1.695312 -6.730469 C 1.164062 -5.058594 1.980469 -2.949219 2.417969 -2.332031 C 3.628906 -0.660156 5.632812 -0.265625 7.171875 -0.265625 C 8.183594 -0.285156 9.394531 -0.570312 10.273438 -1.035156 C 10.625 -1.230469 11.417969 -1.824219 11.769531 -2.355469 C 12.03125 -2.835938 11.308594 -3.386719 10.867188 -2.859375 C 10.40625 -2.289062 9.261719 -1.078125 7.015625 -1.1875 C 4.863281 -1.253906 2.640625 -2.179688 2.597656 -5.367188 C 4.773438 -5.410156 6.511719 -5.324219 8.445312 -5.324219 C 9.65625 -5.324219 10.648438 -5.324219 11.21875 -5.390625 C 11.746094 -5.457031 11.855469 -6.09375 11.8125 -6.730469 C 11.789062 -7.371094 11.4375 -8.25 11.019531 -8.777344 Z M 9.4375 -6.355469 C 8.535156 -6.3125 6.621094 -6.292969 5.917969 -6.3125 C 4.683594 -6.378906 4.445312 -6.269531 2.683594 -6.378906 C 3.320312 -8.445312 4.773438 -9.371094 6.46875 -9.503906 C 8.09375 -9.65625 9.523438 -9.171875 10.164062 -8.160156 C 11.066406 -6.644531 10.734375 -6.203125 9.4375 -6.355469 Z M 9.4375 -6.355469 "/></g></g></g><g fill="#ffffff" fill-opacity="1"><g transform="translate(147.502562, 255.017678)"><g><path d="M 23.097656 -27.445312 L 12.996094 -15.582031 C 15.972656 -14.640625 17.5 -13.074219 18.597656 -10.804688 L 23.609375 0 L 18.949219 0 C 17.617188 -2.976562 16.324219 -5.871094 14.917969 -8.691406 C 14.054688 -10.375 12.917969 -11.746094 10.375 -12.527344 L 7.242188 -8.847656 L 7.242188 0 L 2.742188 0 L 2.742188 -27.445312 L 7.242188 -27.445312 L 7.242188 -15.074219 L 17.773438 -27.445312 Z M 23.097656 -27.445312 "/></g></g></g><g fill="#ffffff" fill-opacity="1"><g transform="translate(172.27855, 255.017678)"><g><path d="M 2.742188 -27.445312 L 7.203125 -27.445312 L 15.816406 -8.808594 L 24.351562 -27.445312 L 28.8125 -27.445312 L 28.8125 0 L 24.351562 0 L 24.351562 -17.734375 L 17.304688 -2.898438 L 14.25 -2.898438 L 7.203125 -17.773438 L 7.203125 0 L 2.742188 0 Z M 2.742188 -27.445312 "/></g></g></g><g fill="#ffffff" fill-opacity="1"><g transform="translate(203.825858, 255.017678)"><g><path d="M 11.746094 -3.523438 C 14.640625 -3.445312 16.757812 -5.089844 16.71875 -7.4375 C 16.679688 -9.589844 15.699219 -10.492188 13.390625 -11.351562 L 7.910156 -13.46875 C 4.1875 -14.878906 2.347656 -16.796875 2.347656 -20.320312 C 2.347656 -25.449219 6.539062 -27.835938 12.019531 -27.835938 C 14.40625 -27.835938 17.34375 -27.050781 20.320312 -25.683594 L 19.105469 -22.003906 C 16.324219 -23.332031 14.40625 -23.921875 12.019531 -23.921875 C 8.574219 -23.921875 6.96875 -22.394531 6.96875 -20.28125 C 6.96875 -18.753906 8.105469 -17.890625 10.023438 -17.148438 C 11.902344 -16.402344 13.546875 -15.738281 15.425781 -15.035156 C 18.792969 -13.742188 21.335938 -11.941406 21.335938 -7.515625 C 21.335938 -3.171875 18.125 0.390625 11.746094 0.390625 C 8.808594 0.390625 5.910156 -0.234375 2.464844 -2.191406 L 4.304688 -5.871094 C 7.359375 -4.386719 9.042969 -3.601562 11.746094 -3.523438 Z M 11.746094 -3.523438 "/></g></g></g></svg>