<svg xmlns="http://www.w3.org/2000/svg" xmlns:xlink="http://www.w3.org/1999/xlink" width="500" zoomAndPan="magnify" viewBox="0 0 375 374.999991" height="500" preserveAspectRatio="xMidYMid meet" version="1.0"><defs><g/><clipPath id="7511fca722"><path d="M 104.46875 117.601562 L 272.46875 117.601562 L 272.46875 201 L 104.46875 201 Z M 104.46875 117.601562 " clip-rule="nonzero"/></clipPath><clipPath id="8dabbd3c16"><path d="M 208 131 L 228 131 L 228 149 L 208 149 Z M 208 131 " clip-rule="nonzero"/></clipPath><clipPath id="3a22b7c322"><path d="M 226.730469 124 L 233.738281 145.382812 L 210.21875 153.089844 L 203.210938 131.707031 Z M 226.730469 124 " clip-rule="nonzero"/></clipPath><clipPath id="da4988673a"><path d="M 233.550781 109.476562 L 266.484375 209.96875 L 162.433594 244.074219 L 129.496094 143.582031 Z M 233.550781 109.476562 " clip-rule="nonzero"/></clipPath><clipPath id="87279d5b3e"><path d="M 218 96 L 232 96 L 232 110 L 218 110 Z M 218 96 " clip-rule="nonzero"/></clipPath><clipPath id="a266f60e93"><path d="M 237.210938 99.222656 L 231.824219 114.023438 L 215.617188 108.121094 L 221.003906 93.320312 Z M 237.210938 99.222656 " clip-rule="nonzero"/></clipPath><clipPath id="075dfb91d8"><path d="M 247.125 94.238281 L 222.242188 162.601562 L 151.058594 136.695312 L 175.941406 68.332031 Z M 247.125 94.238281 " clip-rule="nonzero"/></clipPath><clipPath id="2283942b9b"><path d="M 225 93 L 233 93 L 233 95 L 225 95 Z M 225 93 " clip-rule="nonzero"/></clipPath><clipPath id="d71a98dc1b"><path d="M 237.210938 99.222656 L 231.824219 114.023438 L 215.617188 108.121094 L 221.003906 93.320312 Z M 237.210938 99.222656 " clip-rule="nonzero"/></clipPath><clipPath id="087e3bb384"><path d="M 247.125 94.238281 L 222.242188 162.601562 L 151.058594 136.695312 L 175.941406 68.332031 Z M 247.125 94.238281 " clip-rule="nonzero"/></clipPath><clipPath id="38ccd9f979"><path d="M 123 115 L 145 115 L 145 136 L 123 136 Z M 123 115 " clip-rule="nonzero"/></clipPath><clipPath id="e7b99fea47"><path d="M 123.882812 107.390625 L 148.296875 111.460938 L 143.734375 138.835938 L 119.320312 134.765625 Z M 123.882812 107.390625 " clip-rule="nonzero"/></clipPath><clipPath id="f9f1fd6253"><path d="M 113.96875 95.515625 L 224.9375 114.019531 L 205.820312 228.6875 L 94.851562 210.183594 Z M 113.96875 95.515625 " clip-rule="nonzero"/></clipPath><clipPath id="c21c244076"><path d="M 119 119 L 121 119 L 121 130 L 119 130 Z M 119 119 " clip-rule="nonzero"/></clipPath><clipPath id="1189904e32"><path d="M 123.882812 107.390625 L 148.296875 111.460938 L 143.734375 138.835938 L 119.320312 134.765625 Z M 123.882812 107.390625 " clip-rule="nonzero"/></clipPath><clipPath id="f1f7876a3a"><path d="M 113.96875 95.515625 L 224.9375 114.019531 L 205.820312 228.6875 L 94.851562 210.183594 Z M 113.96875 95.515625 " clip-rule="nonzero"/></clipPath><clipPath id="efa7374357"><path d="M 172 88 L 196 88 L 196 111 L 172 111 Z M 172 88 " clip-rule="nonzero"/></clipPath><clipPath id="dc2bef79b6"><path d="M 159.941406 99.21875 L 184.570312 72.960938 L 208.089844 95.023438 L 183.464844 121.28125 Z M 159.941406 99.21875 " clip-rule="nonzero"/></clipPath><clipPath id="f6f8232542"><path d="M 60.289062 176.296875 L 169.574219 59.777344 L 280.074219 163.417969 L 170.789062 279.9375 Z M 60.289062 176.296875 " clip-rule="nonzero"/></clipPath><clipPath id="414297a968"><path d="M 159 84 L 161 84 L 161 105 L 159 105 Z M 159 84 " clip-rule="nonzero"/></clipPath><clipPath id="fda1eeaa65"><path d="M 159.941406 99.21875 L 184.570312 72.960938 L 208.089844 95.023438 L 183.464844 121.28125 Z M 159.941406 99.21875 " clip-rule="nonzero"/></clipPath><clipPath id="21e608207a"><path d="M 60.289062 176.296875 L 169.574219 59.777344 L 280.074219 163.417969 L 170.789062 279.9375 Z M 60.289062 176.296875 " clip-rule="nonzero"/></clipPath></defs><rect x="-37.5" width="450" fill="#ffffff" y="-37.499999" height="449.999989" fill-opacity="1"/><rect x="-37.5" width="450" fill="#ffffff" y="-37.499999" height="449.999989" fill-opacity="1"/><rect x="-37.5" width="450" fill="#f1ede9" y="-37.499999" height="449.999989" fill-opacity="1"/><g clip-path="url(#7511fca722)"><path fill="#2d6a4f" d="M 162.523438 159.515625 C 161.652344 159.007812 160.792969 158.515625 159.960938 158.046875 C 158.183594 157.234375 156.558594 156.382812 154.867188 155.882812 C 151.578125 154.707031 148.511719 154.132812 145.882812 153.558594 C 143.234375 153.039062 140.988281 152.585938 139.097656 152.183594 C 137.273438 151.761719 135.8125 151.390625 134.671875 151.046875 C 135.390625 151.582031 136.183594 152.203125 137.105469 152.804688 C 137.667969 153.09375 138.261719 153.390625 138.894531 153.71875 C 139.546875 154.035156 140.21875 154.226562 140.914062 154.523438 C 141.640625 154.78125 142.476562 155.023438 143.289062 155.300781 C 143.722656 155.429688 144.160156 155.566406 144.601562 155.710938 C 144.824219 155.785156 145.054688 155.851562 145.273438 155.929688 L 145.449219 155.976562 L 145.496094 156 C 145.496094 156 145.535156 156.011719 145.539062 156.011719 L 145.550781 156.015625 L 145.894531 156.113281 C 146.828125 156.371094 147.773438 156.636719 148.761719 156.917969 C 149.738281 157.179688 150.765625 157.527344 151.78125 157.703125 C 153.839844 158.113281 155.945312 158.632812 158.265625 158.921875 C 159.640625 159.160156 161.074219 159.339844 162.523438 159.515625 Z M 170.90625 172.75 C 166.722656 170.144531 162.285156 168.949219 158.167969 168.441406 C 153.609375 167.894531 149.394531 167.894531 145.753906 168 C 142.085938 168.183594 138.886719 168.535156 136.117188 168.902344 C 131.394531 169.535156 127.917969 170.097656 125.464844 170.421875 C 125.441406 170.421875 125.4375 170.433594 125.40625 170.445312 C 124.945312 170.585938 124.449219 170.742188 123.914062 170.96875 C 123.847656 170.996094 123.773438 171.03125 123.691406 171.058594 C 126.011719 171.25 128.679688 171.144531 131.585938 170.914062 C 133.800781 170.730469 136.296875 170.550781 138.808594 170.539062 C 141.289062 170.523438 143.871094 170.511719 146.511719 170.5 C 149.027344 170.511719 151.480469 170.523438 153.855469 170.539062 C 155.035156 170.558594 156.203125 170.578125 157.332031 170.597656 C 158.492188 170.664062 159.632812 170.71875 160.746094 170.777344 C 164.519531 171.03125 168.011719 171.730469 170.90625 172.75 Z M 174.253906 180.234375 C 175.269531 180.511719 176.3125 180.875 177.316406 181.371094 C 164.519531 168.988281 140.730469 175.960938 124.171875 179.714844 C 124.199219 180.070312 124.09375 180.453125 123.777344 180.792969 C 122.253906 182.40625 120.539062 183.730469 118.695312 184.847656 C 130.546875 184.226562 142.253906 182.308594 154.117188 181.445312 C 161.242188 180.933594 169.03125 180.667969 176.167969 182.417969 C 175.421875 182.089844 174.640625 181.824219 173.875 181.621094 C 171.605469 181.011719 169.328125 180.769531 167.144531 180.667969 C 164.960938 180.558594 162.871094 180.59375 160.871094 180.644531 C 158.867188 180.695312 156.960938 180.742188 155.160156 180.78125 C 147.957031 180.960938 142.339844 181.066406 138.042969 181.058594 C 133.746094 181.066406 130.78125 181.046875 128.894531 181 C 127.003906 180.945312 126.191406 180.867188 126.191406 180.757812 C 126.191406 180.667969 127.003906 180.558594 128.894531 180.4375 C 130.78125 180.3125 133.742188 180.1875 138.023438 180.042969 C 142.3125 179.890625 147.925781 179.695312 155.132812 179.460938 C 156.929688 179.398438 158.828125 179.332031 160.839844 179.261719 C 162.832031 179.207031 164.964844 179.160156 167.210938 179.257812 C 169.453125 179.351562 171.816406 179.589844 174.253906 180.234375 Z M 177.441406 174.15625 C 178.394531 175.015625 179.300781 175.949219 180.183594 176.949219 C 179.203125 174.726562 177.960938 172.710938 176.550781 170.941406 C 175.667969 169.828125 174.726562 168.808594 173.773438 167.847656 C 170.574219 167.09375 167.335938 166.832031 164.074219 166.78125 C 164.097656 166.792969 164.109375 166.792969 164.113281 166.792969 C 164.757812 166.980469 165.398438 167.207031 166.0625 167.414062 C 168.695312 168.203125 171.273438 169.597656 173.808594 171.269531 C 175.027344 172.160156 176.222656 173.144531 177.441406 174.15625 Z M 182.453125 188.691406 C 182.265625 188.308594 182.085938 187.933594 181.894531 187.574219 C 172.792969 182.914062 161.296875 183.585938 151.453125 184.554688 C 138.453125 185.824219 125.570312 187.816406 112.476562 187.917969 C 111.527344 189.25 110.652344 190.636719 109.851562 192.054688 C 113.164062 192.332031 116.632812 192.121094 119.917969 192.1875 C 128.183594 192.359375 136.449219 192.523438 144.710938 192.675781 C 156.507812 192.894531 168.324219 193.210938 180.121094 193.328125 C 180.183594 193.097656 180.246094 192.878906 180.324219 192.65625 C 170.851562 191.433594 162.871094 191.285156 156.339844 191.257812 C 149.640625 191.28125 144.421875 191.308594 140.433594 191.316406 C 136.449219 191.335938 133.691406 191.28125 131.941406 191.203125 C 130.1875 191.132812 129.421875 191.039062 129.421875 190.941406 C 129.421875 190.847656 130.1875 190.746094 131.941406 190.644531 C 133.691406 190.542969 136.433594 190.445312 140.414062 190.300781 C 144.398438 190.164062 149.625 189.984375 156.339844 189.925781 C 162.976562 189.886719 171.109375 189.984375 180.847656 191.269531 C 180.878906 191.191406 180.929688 191.105469 180.96875 191.019531 C 173.582031 189.804688 167.296875 189.554688 162.09375 189.390625 C 156.519531 189.25 152.136719 189.257812 148.8125 189.183594 C 142.140625 189.046875 139.601562 188.867188 139.601562 188.664062 C 139.601562 188.472656 142.140625 188.289062 148.8125 188.15625 C 152.140625 188.109375 156.503906 187.992188 162.121094 188.058594 C 166.839844 188.144531 172.476562 188.335938 179.03125 189.265625 C 177.445312 188.679688 175.8125 188.398438 174.289062 188.171875 C 171.828125 187.851562 169.496094 187.703125 167.460938 187.484375 C 163.367188 187.121094 160.175781 186.671875 157.738281 186.621094 C 152.839844 186.34375 150.972656 186.113281 150.972656 185.914062 C 150.972656 185.710938 152.839844 185.589844 157.773438 185.605469 C 160.25 185.53125 163.453125 185.863281 167.585938 186.164062 C 169.65625 186.34375 171.90625 186.457031 174.472656 186.777344 C 175.753906 186.957031 177.097656 187.167969 178.484375 187.578125 C 179.683594 187.890625 180.890625 188.433594 182.066406 189.160156 C 182.191406 188.996094 182.316406 188.84375 182.453125 188.691406 Z M 184.359375 180.234375 C 184.539062 177.292969 184.496094 174.476562 184.210938 171.816406 C 182.710938 169.9375 180.488281 168.191406 177.824219 166.792969 C 177.101562 166.410156 176.359375 166.066406 175.589844 165.726562 C 176.675781 166.78125 177.734375 167.914062 178.75 169.167969 C 180.582031 171.449219 182.230469 174.105469 183.386719 177.148438 C 183.773438 178.15625 184.097656 179.179688 184.359375 180.234375 Z M 190.097656 195.914062 C 189.359375 193.9375 188.617188 191.878906 187.125 190.582031 C 184.84375 188.59375 183.410156 192.066406 182.738281 195.042969 C 185.007812 194.074219 187.605469 194.925781 190.097656 195.914062 Z M 225.050781 185.199219 C 227.425781 185.214844 229.792969 185.253906 232.15625 185.3125 C 229.710938 184.957031 227.261719 184.679688 224.78125 184.5625 C 218.421875 184.246094 211.695312 183.980469 205.410156 185.214844 C 202.539062 185.78125 199.914062 186.75 197.363281 187.933594 C 206.53125 186.429688 215.679688 185.148438 225.050781 185.199219 Z M 245.398438 163.632812 C 244.917969 163.226562 244.4375 162.828125 243.957031 162.4375 C 241.683594 160.53125 239.417969 158.707031 236.859375 157.222656 C 234.175781 155.671875 231.957031 156.238281 228.984375 156.382812 C 227.375 156.46875 225.910156 156.601562 224.742188 156.632812 C 223.492188 156.824219 222.117188 157.03125 220.566406 157.28125 C 218.257812 157.664062 215.585938 158.125 212.589844 158.820312 C 209.597656 159.566406 206.222656 160.460938 202.71875 162.03125 C 199.234375 163.59375 195.523438 165.804688 192.601562 169.359375 C 191.546875 170.605469 190.648438 172.035156 189.894531 173.605469 C 189.453125 176.085938 188.992188 178.671875 188.511719 181.363281 C 190.199219 179.054688 192.027344 176.882812 194.367188 175.164062 C 198.773438 171.945312 203.621094 169.398438 208.828125 167.742188 C 217.859375 164.859375 227.613281 164.089844 236.984375 163.882812 C 238.46875 163.78125 240.144531 163.730469 241.945312 163.699219 C 243.050781 163.679688 244.207031 163.660156 245.398438 163.632812 Z M 257.5625 187.167969 C 255.378906 185.894531 253.230469 184.574219 251.796875 182.40625 C 251.648438 182.199219 251.582031 181.988281 251.566406 181.773438 C 251.535156 181.71875 251.507812 181.660156 251.488281 181.59375 C 250.742188 178.804688 249.769531 176.101562 248.75 173.421875 C 237.378906 171.195312 225.421875 170.921875 213.988281 172.945312 C 204.734375 174.589844 195.609375 177.820312 189.910156 185.542969 C 191.199219 184.460938 192.449219 183.363281 193.734375 182.34375 C 196 180.742188 198.1875 179.535156 200.355469 178.394531 C 204.644531 176.132812 208.867188 174.539062 212.8125 173.890625 C 220.554688 172.464844 226.726562 171.859375 231.4375 172.007812 C 236.148438 172.148438 239.378906 172.769531 241.363281 173.367188 C 243.34375 174 244.167969 174.320312 244.140625 174.421875 C 244.101562 174.511719 243.21875 174.371094 241.226562 173.914062 C 239.246094 173.488281 236.054688 173.027344 231.425781 173.023438 C 226.800781 173.023438 220.742188 173.699219 213.054688 175.195312 C 209.253906 175.855469 205.230469 177.40625 201.003906 179.652344 C 198.898438 180.769531 196.664062 182.015625 194.605469 183.476562 C 193.53125 184.324219 192.480469 185.253906 191.363281 186.203125 C 195.328125 183.839844 199.109375 181.734375 202.804688 180.167969 C 205.117188 179.160156 207.414062 178.421875 209.625 177.828125 C 211.847656 177.3125 213.988281 176.898438 216.011719 176.695312 C 220.085938 176.226562 223.71875 176.199219 226.917969 176.210938 C 230.105469 176.226562 232.894531 176.238281 235.320312 176.335938 C 240.15625 176.527344 243.488281 177.101562 245.5625 177.609375 C 247.597656 178.175781 248.449219 178.519531 248.449219 178.613281 C 248.371094 178.953125 244.882812 177.492188 235.285156 177.351562 C 232.882812 177.332031 230.117188 177.367188 226.917969 177.40625 C 223.734375 177.445312 220.140625 177.511719 216.183594 178.011719 C 214.191406 178.230469 212.113281 178.652344 209.964844 179.160156 C 207.835938 179.753906 205.613281 180.476562 203.363281 181.46875 C 203.335938 181.480469 203.304688 181.492188 203.277344 181.507812 C 207.863281 179.96875 212.152344 179.035156 216.0625 178.683594 C 223.625 177.914062 229.542969 178.683594 233.949219 179.460938 C 235.050781 179.679688 236.070312 179.878906 237 180.058594 C 237.921875 180.3125 238.765625 180.53125 239.535156 180.730469 C 240.285156 180.945312 240.976562 181.125 241.59375 181.292969 C 242.191406 181.507812 242.734375 181.679688 243.203125 181.84375 C 245.058594 182.496094 245.84375 182.828125 245.808594 182.925781 C 245.78125 183.015625 244.933594 182.855469 243.039062 182.378906 C 242.570312 182.265625 242.023438 182.117188 241.410156 181.960938 C 240.792969 181.824219 240.105469 181.679688 239.34375 181.519531 C 238.574219 181.34375 237.730469 181.164062 236.816406 180.960938 C 235.882812 180.808594 234.875 180.644531 233.785156 180.464844 C 229.417969 179.820312 223.582031 179.179688 216.203125 180.003906 C 212.796875 180.347656 209.089844 181.136719 205.121094 182.390625 C 210.554688 181.609375 216.023438 181.34375 221.511719 181.546875 C 232.070312 181.9375 242.125 184.691406 252.398438 186.566406 C 254.121094 186.738281 255.835938 186.9375 257.5625 187.167969 Z M 229.164062 192.859375 C 240.679688 192.859375 252.371094 192.859375 263.734375 192.859375 C 263.019531 192.160156 262.285156 191.476562 261.5625 190.789062 C 261.546875 190.777344 261.523438 190.789062 261.496094 190.789062 C 258.652344 190.492188 255.824219 190.023438 253.019531 189.488281 C 243.738281 188.472656 234.394531 188.085938 225.050781 188.070312 C 213.660156 188.046875 202.605469 189.949219 191.421875 191.824219 C 191.597656 192.195312 191.773438 192.578125 191.929688 192.960938 C 194.605469 192.859375 196.542969 192.820312 198.746094 192.667969 C 201.066406 192.464844 203.199219 192.261719 205.308594 192.082031 C 207.414062 191.875 209.414062 191.671875 211.324219 191.476562 C 213.246094 191.335938 215.070312 191.203125 216.792969 191.078125 C 217.65625 190.992188 218.496094 191 219.3125 190.992188 C 220.125 190.980469 220.921875 190.980469 221.6875 190.96875 C 223.226562 190.964844 224.679688 190.953125 226.039062 190.941406 C 228.757812 190.9375 231.132812 190.902344 233.183594 190.96875 C 237.277344 191.054688 240.105469 191.152344 241.910156 191.246094 C 243.722656 191.34375 244.496094 191.445312 244.496094 191.546875 C 244.496094 191.640625 243.722656 191.726562 241.910156 191.804688 C 240.105469 191.878906 237.277344 191.945312 233.183594 191.988281 C 231.125 191.988281 228.765625 192.082031 226.054688 192.140625 C 224.707031 192.167969 223.257812 192.195312 221.734375 192.234375 C 220.972656 192.257812 220.183594 192.273438 219.367188 192.285156 C 218.550781 192.300781 217.722656 192.300781 216.871094 192.398438 C 215.84375 192.484375 214.769531 192.578125 213.671875 192.667969 C 218.851562 192.703125 224.035156 192.859375 229.164062 192.859375 Z M 268.179688 197.253906 C 267.589844 196.871094 266.9375 196.546875 266.363281 196.171875 C 266.164062 196.046875 266.019531 195.894531 265.914062 195.734375 C 253.957031 195.734375 242.671875 195.734375 231.039062 195.734375 C 218.628906 195.734375 205.792969 194.8125 193.488281 196.691406 C 193.578125 196.882812 193.667969 197.066406 193.765625 197.246094 C 193.808594 197.324219 193.847656 197.410156 193.878906 197.488281 C 218.640625 197.515625 243.421875 198.316406 268.179688 197.253906 Z M 107.542969 195.714844 C 107.542969 195.714844 107.53125 195.734375 107.519531 195.734375 C 107.542969 195.734375 107.5625 195.722656 107.578125 195.703125 C 107.65625 195.703125 107.914062 195.734375 107.914062 195.734375 C 107.933594 195.734375 107.957031 195.738281 107.972656 195.738281 C 108.109375 195.722656 108.238281 195.714844 108.394531 195.734375 C 112.136719 196.230469 116.152344 195.941406 119.917969 196.019531 C 128.183594 196.191406 136.449219 196.355469 144.710938 196.511719 C 156.175781 196.726562 167.652344 197.023438 179.117188 197.144531 C 179.117188 196.84375 179.117188 196.511719 179.117188 196.183594 C 167.652344 196.066406 156.175781 195.773438 144.710938 195.550781 C 136.449219 195.394531 128.183594 195.242188 119.917969 195.070312 C 116.183594 194.992188 112.199219 195.269531 108.480469 194.796875 C 108.375 194.871094 108.25 194.9375 108.125 194.992188 C 108.074219 195.050781 108.03125 195.117188 107.972656 195.179688 C 107.742188 195.386719 107.667969 195.625 107.578125 195.703125 L 107.570312 195.703125 C 107.5625 195.703125 107.550781 195.722656 107.542969 195.714844 Z M 138.175781 173.6875 C 135.953125 173.683594 133.855469 173.777344 131.75 173.851562 C 127.207031 174.039062 122.878906 173.886719 119.496094 172.503906 L 116.894531 171.429688 L 119.449219 170.472656 C 122.351562 169.390625 124.804688 169.015625 126.523438 168.824219 C 126.566406 168.824219 126.59375 168.824219 126.632812 168.824219 C 128.914062 168.265625 131.914062 167.601562 135.800781 166.890625 C 138.589844 166.394531 141.84375 165.902344 145.621094 165.613281 C 147.558594 165.511719 149.636719 165.433594 151.835938 165.445312 C 151.960938 165.355469 152.101562 165.296875 152.292969 165.296875 C 158.664062 165.230469 165.042969 164.660156 171.292969 165.613281 C 171.246094 165.566406 171.183594 165.511719 171.128906 165.460938 C 170.34375 164.8125 169.546875 164.199219 168.765625 163.617188 C 167.546875 163.375 166.304688 163.183594 165.027344 163.070312 C 162.523438 162.769531 160.09375 162.492188 157.746094 162.042969 C 155.398438 161.703125 153.125 161.09375 150.949219 160.570312 C 149.851562 160.328125 148.890625 159.945312 147.914062 159.628906 C 146.949219 159.300781 146.011719 158.976562 145.101562 158.667969 L 144.765625 158.554688 L 144.535156 158.46875 L 144.371094 158.402344 C 144.152344 158.3125 143.933594 158.230469 143.722656 158.15625 C 143.289062 157.980469 142.882812 157.804688 142.464844 157.648438 C 141.625 157.296875 140.828125 156.992188 140.042969 156.632812 C 139.265625 156.238281 138.46875 155.882812 137.847656 155.492188 C 137.53125 155.289062 137.234375 155.085938 136.953125 154.898438 C 136.804688 154.796875 136.671875 154.707031 136.53125 154.605469 L 136.320312 154.476562 L 136.21875 154.398438 L 136.191406 154.378906 L 136.128906 154.339844 C 136.105469 154.324219 136.0625 154.285156 136.0625 154.285156 C 134.996094 153.375 134.238281 152.511719 133.648438 151.851562 C 133.359375 151.527344 133.097656 151.226562 132.867188 150.960938 C 132.628906 150.710938 132.421875 150.492188 132.257812 150.308594 C 132.179688 150.222656 132.121094 150.148438 132.066406 150.074219 C 131.570312 149.847656 131.355469 149.695312 131.382812 149.601562 C 131.445312 149.410156 132.496094 149.492188 134.8125 149.921875 C 135.992188 150.097656 137.5 150.316406 139.382812 150.59375 C 141.277344 150.855469 143.546875 151.171875 146.238281 151.542969 C 148.9375 152.003906 152.09375 152.472656 155.617188 153.625 C 157.402344 154.09375 159.210938 154.957031 161.148438 155.808594 C 162.976562 156.785156 164.894531 157.828125 166.855469 159.074219 C 167.511719 159.476562 168.160156 159.910156 168.832031 160.34375 C 168.933594 160.367188 169.050781 160.382812 169.164062 160.417969 C 170.410156 160.660156 171.617188 160.980469 172.785156 161.351562 C 175.121094 162.09375 177.308594 163.046875 179.269531 164.1875 C 180.804688 165.066406 182.210938 166.082031 183.445312 167.195312 C 183.253906 166.398438 183.054688 165.613281 182.878906 164.847656 C 182.457031 163.59375 182.050781 162.375 181.65625 161.195312 C 181.148438 160.039062 180.65625 158.929688 180.183594 157.839844 C 179.683594 156.746094 179.089844 155.699219 178.582031 154.679688 C 176.453125 150.589844 174.382812 147.011719 172.582031 143.824219 C 170.765625 140.640625 169.203125 137.847656 167.859375 135.40625 C 162.601562 125.59375 161.417969 121.46875 161.710938 121.339844 C 162.152344 121.152344 163.972656 124.933594 169.632812 134.394531 C 171.070312 136.753906 172.734375 139.484375 174.640625 142.605469 C 176.539062 145.757812 178.695312 149.300781 180.917969 153.429688 C 181.464844 154.476562 182.066406 155.507812 182.609375 156.636719 C 183.128906 157.789062 183.675781 158.96875 184.210938 160.1875 C 184.652344 161.449219 185.121094 162.730469 185.566406 164.0625 C 185.890625 165.433594 186.300781 166.816406 186.570312 168.265625 C 186.777344 169.382812 186.933594 170.523438 187.054688 171.691406 C 187.136719 171.832031 187.191406 171.984375 187.257812 172.128906 C 188.53125 165.105469 189.679688 158.910156 190.695312 153.449219 C 192.347656 144.578125 193.65625 137.664062 194.714844 132.410156 C 196.828125 121.867188 197.882812 117.921875 198.273438 117.988281 C 198.667969 118.066406 198.3125 122.144531 196.714844 132.757812 C 195.921875 138.0625 194.820312 145.007812 193.324219 153.902344 C 192.652344 157.816406 191.902344 162.136719 191.078125 166.84375 C 194.3125 163.277344 198.160156 161.09375 201.664062 159.597656 C 205.445312 157.992188 208.964844 157.144531 212.078125 156.496094 C 215.1875 155.875 217.929688 155.519531 220.300781 155.261719 C 222.28125 155.050781 223.996094 154.917969 225.480469 154.820312 C 227.234375 154.707031 228.402344 154.464844 230.179688 154.617188 C 231.894531 154.753906 233.644531 154.503906 235.355469 154.378906 C 235.683594 154.363281 236.324219 154.1875 236.589844 154.214844 C 240.019531 154.589844 243.507812 157.855469 246.035156 159.953125 C 247.625 161.285156 249.121094 162.578125 250.578125 163.632812 L 254.074219 166.171875 L 249.835938 166.5 C 249.464844 166.527344 249.105469 166.527344 248.726562 166.546875 C 248.546875 166.628906 248.335938 166.679688 248.082031 166.679688 C 236.589844 166.679688 224.007812 166.296875 212.605469 169.589844 C 210.542969 170.195312 208.507812 170.867188 206.523438 171.65625 C 208.714844 171.03125 210.957031 170.539062 213.21875 170.171875 C 225.429688 168.230469 237.757812 168.300781 249.90625 170.71875 C 250.273438 170.800781 250.53125 170.96875 250.699219 171.199219 C 250.921875 171.351562 251.113281 171.582031 251.226562 171.882812 C 252.371094 174.820312 253.4375 177.777344 254.265625 180.824219 C 254.273438 180.875 254.273438 180.921875 254.285156 180.972656 C 256.203125 183.84375 260.011719 185.007812 262.703125 186.988281 C 263.222656 187.382812 263.375 187.945312 263.300781 188.460938 C 264.785156 189.925781 266.300781 191.335938 267.667969 192.917969 C 268.316406 193.085938 268.648438 193.644531 268.671875 194.226562 C 270.046875 195.050781 271.476562 195.867188 272.160156 197.398438 C 272.476562 198.113281 272.378906 198.941406 271.640625 199.371094 C 271.621094 199.382812 271.59375 199.382812 271.578125 199.402344 C 271.351562 199.757812 270.96875 200.015625 270.433594 200.042969 C 244.90625 201.269531 219.347656 200.386719 193.804688 200.359375 C 193.339844 200.359375 192.984375 200.179688 192.761719 199.910156 C 192.613281 199.910156 192.472656 199.890625 192.308594 199.835938 C 189.359375 198.824219 185.074219 195.6875 182.523438 198.824219 C 182.480469 198.886719 182.429688 198.921875 182.382812 198.972656 C 182.246094 199.554688 181.808594 200.054688 181.035156 200.042969 C 168.925781 199.9375 156.8125 199.609375 144.710938 199.382812 C 136.449219 199.230469 128.183594 199.074219 119.917969 198.894531 C 116.152344 198.8125 112.136719 199.101562 108.394531 198.605469 C 108.347656 198.59375 108.304688 198.585938 108.261719 198.578125 C 108.15625 198.59375 108.042969 198.605469 107.914062 198.605469 C 106.589844 198.578125 104.949219 198 104.667969 196.515625 C 104.417969 195.195312 104.976562 194.007812 105.941406 193.121094 C 106.023438 193.042969 106.105469 192.984375 106.191406 192.929688 C 106.21875 192.769531 106.269531 192.617188 106.355469 192.453125 C 107.601562 190.136719 108.910156 187.855469 110.503906 185.75 C 110.722656 185.464844 110.992188 185.289062 111.292969 185.203125 C 111.351562 185.164062 111.433594 185.125 111.515625 185.089844 C 115.636719 183.566406 119.34375 181.851562 121.175781 177.710938 C 123.71875 177.542969 126.671875 176.210938 129.226562 175.625 C 131.996094 174.992188 135.339844 173.6875 138.175781 173.6875 " fill-opacity="1" fill-rule="nonzero"/></g><path fill="#2d6a4f" d="M 107.570312 195.703125 L 107.578125 195.703125 C 107.5625 195.722656 107.542969 195.734375 107.519531 195.734375 C 107.53125 195.734375 107.542969 195.714844 107.542969 195.714844 C 107.550781 195.722656 107.5625 195.703125 107.570312 195.703125 " fill-opacity="1" fill-rule="nonzero"/><g clip-path="url(#8dabbd3c16)"><g clip-path="url(#3a22b7c322)"><g clip-path="url(#da4988673a)"><path fill="#b4761a" d="M 216.511719 141.941406 C 216.566406 141.964844 216.617188 141.984375 216.6875 142.003906 C 216.738281 141.949219 216.769531 141.910156 216.789062 141.839844 C 216.882812 141.855469 217.003906 141.679688 216.957031 141.59375 C 217.035156 141.558594 217.183594 141.417969 217.136719 141.3125 C 217.210938 141.285156 217.234375 141.234375 217.269531 141.171875 C 217.9375 142.449219 217.148438 144.066406 217.472656 145.457031 C 217.582031 145.9375 217.664062 145.980469 218.027344 146.234375 C 218.492188 146.148438 218.773438 146.0625 219.160156 146.390625 C 219.996094 147.097656 219.914062 148.832031 220.535156 148.660156 C 220.777344 148.589844 220.613281 147.824219 220.632812 147.164062 C 220.652344 146.59375 220.625 144.746094 221.433594 144.6875 C 221.472656 144.6875 221.511719 144.6875 221.550781 144.6875 C 221.554688 144.226562 221.621094 143.765625 222.175781 143.742188 C 221.96875 143.1875 221.785156 142.625 221.578125 142.066406 C 222.273438 142.359375 223.164062 142.90625 223.636719 142.394531 C 223.960938 142.042969 223.777344 142.3125 224.160156 142.09375 C 224.667969 141.808594 224.613281 141.496094 224.753906 141.3125 C 224.914062 141.097656 225.546875 140.960938 225.886719 140.035156 C 226.070312 139.535156 226.574219 139.246094 226.828125 138.777344 C 226.9375 138.582031 226.953125 138.40625 226.925781 138.1875 C 228.285156 137.078125 225.585938 135.785156 224.59375 135.828125 C 223.730469 135.867188 222.695312 136.117188 222.039062 136.335938 C 220.773438 136.769531 219.609375 137.417969 218.472656 138.121094 C 218.480469 138.027344 218.421875 137.984375 218.347656 137.945312 C 218.589844 137.988281 218.765625 137.566406 218.503906 137.503906 L 218.492188 137.457031 C 219.160156 137.089844 219.335938 137.53125 220.132812 136.867188 C 220.183594 136.824219 220.199219 136.777344 220.191406 136.707031 C 220.183594 136.703125 220.171875 136.699219 220.164062 136.695312 C 219.902344 136.867188 220.023438 137.203125 219.015625 137.265625 C 218.808594 137.28125 218.660156 137.339844 218.492188 137.453125 C 218.460938 137.320312 218.449219 137.207031 218.476562 137.070312 L 218.375 137.03125 C 218.304688 137.148438 218.214844 137.226562 218.105469 137.304688 C 218.058594 137.105469 217.988281 136.957031 217.847656 136.808594 C 217.148438 136.078125 217.464844 135.914062 217.394531 135.609375 C 217.382812 135.605469 217.375 135.601562 217.363281 135.597656 C 217.308594 135.648438 217.289062 135.691406 217.296875 135.757812 C 217.429688 136.785156 217.859375 136.578125 218.101562 137.304688 L 218.0625 137.332031 C 217.828125 137.195312 217.671875 137.628906 217.875 137.761719 C 217.792969 137.738281 217.722656 137.734375 217.664062 137.804688 C 217.308594 136.519531 216.894531 135.253906 216.253906 134.074219 C 215.925781 133.46875 215.335938 132.582031 214.726562 131.96875 C 214.03125 131.265625 211.167969 130.382812 211.414062 132.117188 C 211.246094 132.261719 211.136719 132.402344 211.082031 132.617188 C 210.949219 133.132812 211.125 133.691406 210.921875 134.179688 C 210.539062 135.089844 210.910156 135.621094 210.886719 135.886719 C 210.863281 136.113281 210.609375 136.3125 210.785156 136.863281 C 210.921875 137.285156 210.96875 136.960938 210.96875 137.441406 C 210.96875 138.136719 211.996094 138.339844 212.703125 138.597656 C 212.175781 138.863281 211.65625 139.152344 211.125 139.421875 C 211.515625 139.8125 211.253906 140.199219 210.941406 140.539062 C 210.972656 140.566406 211 140.589844 211.03125 140.617188 C 211.582031 141.207031 210.308594 142.546875 209.933594 142.976562 C 209.5 143.476562 208.859375 143.929688 208.988281 144.144531 C 209.328125 144.691406 210.445312 143.363281 211.539062 143.410156 C 212.046875 143.433594 212.195312 143.683594 212.476562 144.0625 C 212.917969 144.125 213.007812 144.144531 213.414062 143.871094 C 214.597656 143.066406 215.117188 141.34375 216.476562 140.859375 C 216.457031 140.933594 216.441406 140.984375 216.476562 141.054688 C 216.371094 141.101562 216.382812 141.304688 216.417969 141.382812 C 216.328125 141.414062 216.296875 141.625 216.375 141.675781 C 216.339844 141.742188 216.335938 141.792969 216.339844 141.867188 C 216.402344 141.902344 216.453125 141.921875 216.511719 141.941406 " fill-opacity="1" fill-rule="evenodd"/></g></g></g><g clip-path="url(#87279d5b3e)"><g clip-path="url(#a266f60e93)"><g clip-path="url(#075dfb91d8)"><path fill="#b4761a" d="M 224.015625 104.527344 C 224.035156 104.566406 224.054688 104.597656 224.085938 104.636719 C 224.136719 104.628906 224.167969 104.625 224.210938 104.589844 C 224.253906 104.640625 224.394531 104.597656 224.40625 104.53125 C 224.464844 104.546875 224.605469 104.53125 224.625 104.457031 C 224.675781 104.472656 224.710938 104.457031 224.757812 104.4375 C 224.574219 105.410156 223.457031 105.949219 223.039062 106.839844 C 222.898438 107.144531 222.921875 107.203125 223.011719 107.496094 C 223.300781 107.648438 223.492188 107.722656 223.5625 108.0625 C 223.71875 108.800781 222.933594 109.707031 223.34375 109.875 C 223.503906 109.941406 223.742188 109.457031 224.035156 109.109375 C 224.289062 108.808594 225.0625 107.796875 225.527344 108.109375 C 225.546875 108.128906 225.566406 108.144531 225.589844 108.160156 C 225.789062 107.914062 226.019531 107.695312 226.332031 107.917969 C 226.457031 107.527344 226.597656 107.144531 226.71875 106.757812 C 226.972656 107.210938 227.226562 107.886719 227.703125 107.8125 C 228.027344 107.757812 227.8125 107.828125 228.117188 107.871094 C 228.511719 107.933594 228.617188 107.742188 228.769531 107.699219 C 228.949219 107.65625 229.355469 107.851562 229.933594 107.492188 C 230.242188 107.300781 230.644531 107.359375 230.980469 107.214844 C 231.121094 107.15625 231.207031 107.066406 231.285156 106.9375 C 232.496094 106.917969 231.578125 105.066406 231.019531 104.667969 C 230.535156 104.320312 229.863281 104.015625 229.414062 103.855469 C 228.539062 103.550781 227.628906 103.40625 226.710938 103.300781 C 226.753906 103.253906 226.742188 103.203125 226.71875 103.152344 C 226.832031 103.277344 227.109375 103.125 226.988281 102.980469 L 227.003906 102.949219 C 227.527344 103.035156 227.433594 103.347656 228.148438 103.328125 C 228.195312 103.328125 228.222656 103.308594 228.25 103.265625 C 228.246094 103.261719 228.242188 103.253906 228.238281 103.25 C 228.023438 103.230469 227.945312 103.464844 227.371094 103.070312 C 227.253906 102.988281 227.144531 102.957031 227.003906 102.949219 C 227.046875 102.863281 227.085938 102.792969 227.160156 102.734375 L 227.121094 102.667969 C 227.035156 102.703125 226.953125 102.707031 226.859375 102.699219 C 226.917969 102.574219 226.941406 102.464844 226.929688 102.324219 C 226.859375 101.632812 227.105469 101.679688 227.191406 101.484375 C 227.1875 101.476562 227.1875 101.472656 227.183594 101.464844 C 227.132812 101.46875 227.101562 101.480469 227.078125 101.523438 C 226.710938 102.132812 227.035156 102.207031 226.855469 102.699219 L 226.824219 102.699219 C 226.753906 102.523438 226.484375 102.691406 226.539062 102.851562 C 226.503906 102.804688 226.46875 102.769531 226.40625 102.785156 C 226.757812 101.9375 227.074219 101.078125 227.226562 100.167969 C 227.308594 99.699219 227.363281 98.96875 227.292969 98.378906 C 227.214844 97.699219 226.03125 96.003906 225.425781 97.046875 C 225.273438 97.054688 225.152344 97.082031 225.03125 97.175781 C 224.742188 97.398438 224.597656 97.773438 224.277344 97.953125 C 223.683594 98.28125 223.660156 98.726562 223.53125 98.859375 C 223.421875 98.972656 223.199219 98.972656 223.0625 99.34375 C 222.957031 99.628906 223.121094 99.476562 222.914062 99.734375 C 222.617188 100.109375 223.089844 100.65625 223.367188 101.097656 C 222.964844 101.019531 222.558594 100.953125 222.15625 100.871094 C 222.203125 101.25 221.894531 101.347656 221.582031 101.398438 C 221.585938 101.425781 221.589844 101.453125 221.59375 101.476562 C 221.644531 102.03125 220.378906 102.214844 219.992188 102.285156 C 219.542969 102.371094 219.003906 102.34375 218.984375 102.515625 C 218.933594 102.953125 220.109375 102.710938 220.683594 103.203125 C 220.949219 103.433594 220.921875 103.632812 220.914062 103.957031 C 221.128906 104.179688 221.167969 104.226562 221.507812 104.253906 C 222.496094 104.324219 223.511719 103.613281 224.457031 103.929688 C 224.417969 103.960938 224.382812 103.984375 224.375 104.035156 C 224.296875 104.015625 224.214844 104.128906 224.203125 104.1875 C 224.140625 104.164062 224.03125 104.265625 224.054688 104.328125 C 224.007812 104.347656 223.984375 104.375 223.953125 104.414062 C 223.972656 104.460938 223.992188 104.492188 224.015625 104.527344 " fill-opacity="1" fill-rule="evenodd"/></g></g></g><g clip-path="url(#2283942b9b)"><g clip-path="url(#d71a98dc1b)"><g clip-path="url(#087e3bb384)"><path fill="#b4761a" d="M 228.757812 92.574219 C 228.785156 92.574219 228.804688 92.574219 228.835938 92.570312 C 228.84375 92.542969 228.851562 92.523438 228.847656 92.492188 C 228.882812 92.484375 228.902344 92.398438 228.871094 92.375 C 228.894531 92.347656 228.925781 92.273438 228.890625 92.242188 C 228.914062 92.21875 228.914062 92.195312 228.917969 92.167969 C 229.375 92.539062 229.335938 93.265625 229.683594 93.734375 C 229.800781 93.894531 229.839844 93.898438 230.015625 93.9375 C 230.175781 93.832031 230.269531 93.753906 230.464844 93.816406 C 230.890625 93.949219 231.140625 94.609375 231.34375 94.445312 C 231.425781 94.382812 231.238281 94.121094 231.140625 93.871094 C 231.054688 93.65625 230.75 92.96875 231.042969 92.820312 C 231.058594 92.8125 231.070312 92.808594 231.085938 92.800781 C 231.015625 92.628906 230.964844 92.445312 231.167969 92.351562 C 231 92.175781 230.84375 91.996094 230.675781 91.820312 C 230.984375 91.820312 231.40625 91.882812 231.5 91.617188 C 231.5625 91.433594 231.539062 91.5625 231.648438 91.421875 C 231.789062 91.234375 231.71875 91.125 231.742188 91.035156 C 231.769531 90.929688 231.984375 90.777344 231.960938 90.378906 C 231.949219 90.164062 232.09375 89.976562 232.113281 89.761719 C 232.121094 89.671875 232.097656 89.601562 232.054688 89.523438 C 232.382812 88.894531 231.164062 88.839844 230.800781 89.011719 C 230.484375 89.164062 230.136719 89.421875 229.929688 89.609375 C 229.523438 89.96875 229.191406 90.398438 228.878906 90.835938 C 228.867188 90.800781 228.839844 90.796875 228.804688 90.792969 C 228.902344 90.769531 228.898438 90.582031 228.792969 90.601562 L 228.78125 90.585938 C 228.972656 90.34375 229.109375 90.480469 229.296875 90.105469 C 229.3125 90.082031 229.308594 90.0625 229.296875 90.039062 C 229.289062 90.039062 229.285156 90.039062 229.28125 90.039062 C 229.214844 90.144531 229.3125 90.25 228.945312 90.433594 C 228.871094 90.46875 228.824219 90.515625 228.777344 90.585938 C 228.746094 90.539062 228.722656 90.5 228.710938 90.445312 L 228.667969 90.445312 C 228.660156 90.503906 228.640625 90.542969 228.609375 90.589844 C 228.5625 90.523438 228.511719 90.480469 228.433594 90.449219 C 228.054688 90.285156 228.148438 90.175781 228.070312 90.070312 C 228.066406 90.070312 228.0625 90.070312 228.058594 90.070312 C 228.046875 90.097656 228.046875 90.117188 228.058594 90.140625 C 228.273438 90.503906 228.402344 90.359375 228.609375 90.59375 L 228.597656 90.609375 C 228.488281 90.59375 228.5 90.78125 228.597656 90.796875 C 228.5625 90.804688 228.535156 90.8125 228.527344 90.847656 C 228.1875 90.425781 227.828125 90.015625 227.398438 89.679688 C 227.179688 89.503906 226.816406 89.265625 226.488281 89.132812 C 226.117188 88.980469 224.902344 89.105469 225.273438 89.714844 C 225.234375 89.792969 225.214844 89.863281 225.230469 89.953125 C 225.261719 90.167969 225.417969 90.347656 225.421875 90.5625 C 225.421875 90.960938 225.648438 91.101562 225.679688 91.203125 C 225.710938 91.292969 225.644531 91.40625 225.800781 91.585938 C 225.917969 91.71875 225.882812 91.59375 225.960938 91.769531 C 226.074219 92.03125 226.488281 91.945312 226.796875 91.929688 C 226.640625 92.113281 226.492188 92.300781 226.339844 92.484375 C 226.546875 92.570312 226.511719 92.753906 226.449219 92.933594 C 226.464844 92.9375 226.480469 92.941406 226.496094 92.949219 C 226.796875 93.082031 226.535156 93.78125 226.464844 94.003906 C 226.382812 94.257812 226.214844 94.527344 226.296875 94.585938 C 226.511719 94.738281 226.71875 94.0625 227.132812 93.910156 C 227.328125 93.835938 227.421875 93.90625 227.589844 94.003906 C 227.765625 93.957031 227.800781 93.953125 227.910156 93.785156 C 228.222656 93.296875 228.140625 92.570312 228.570312 92.175781 C 228.578125 92.207031 228.578125 92.230469 228.601562 92.25 C 228.570312 92.28125 228.609375 92.355469 228.632812 92.382812 C 228.605469 92.40625 228.628906 92.492188 228.664062 92.496094 C 228.664062 92.527344 228.667969 92.546875 228.683594 92.574219 C 228.710938 92.574219 228.734375 92.578125 228.757812 92.574219 " fill-opacity="1" fill-rule="evenodd"/></g></g></g><g clip-path="url(#38ccd9f979)"><g clip-path="url(#e7b99fea47)"><g clip-path="url(#f9f1fd6253)"><path fill="#b4761a" d="M 136.179688 127.527344 C 136.230469 127.488281 136.269531 127.449219 136.324219 127.394531 C 136.300781 127.320312 136.277344 127.269531 136.21875 127.214844 C 136.28125 127.136719 136.171875 126.9375 136.070312 126.9375 C 136.078125 126.847656 136.015625 126.636719 135.894531 126.628906 C 135.90625 126.546875 135.867188 126.5 135.824219 126.433594 C 137.359375 126.4375 138.492188 127.976562 139.96875 128.355469 C 140.472656 128.484375 140.554688 128.433594 140.976562 128.214844 C 141.121094 127.734375 141.179688 127.429688 141.679688 127.226562 C 142.757812 126.789062 144.355469 127.71875 144.496094 127.050781 C 144.550781 126.789062 143.746094 126.566406 143.132812 126.222656 C 142.605469 125.921875 140.847656 125.039062 141.191406 124.25 C 141.210938 124.214844 141.230469 124.175781 141.25 124.140625 C 140.820312 123.910156 140.417969 123.617188 140.667969 123.089844 C 140.042969 123.007812 139.421875 122.902344 138.792969 122.824219 C 139.410156 122.316406 140.367188 121.746094 140.117188 121.046875 C 139.945312 120.570312 140.109375 120.875 140.09375 120.40625 C 140.074219 119.792969 139.75 119.683594 139.644531 119.464844 C 139.523438 119.207031 139.707031 118.542969 139 117.769531 C 138.621094 117.351562 138.597656 116.734375 138.28125 116.265625 C 138.148438 116.066406 137.988281 115.964844 137.773438 115.882812 C 137.394531 114.058594 134.84375 115.960938 134.398438 116.914062 C 134.007812 117.746094 133.734375 118.839844 133.621094 119.566406 C 133.402344 120.972656 133.441406 122.386719 133.542969 123.800781 C 133.460938 123.75 133.390625 123.78125 133.316406 123.832031 C 133.472656 123.625 133.164062 123.25 132.976562 123.46875 L 132.925781 123.457031 C 132.910156 122.644531 133.414062 122.699219 133.179688 121.625 C 133.164062 121.550781 133.128906 121.515625 133.054688 121.488281 C 133.046875 121.496094 133.039062 121.5 133.03125 121.507812 C 133.066406 121.839844 133.441406 121.890625 133.003906 122.871094 C 132.917969 123.070312 132.898438 123.242188 132.921875 123.457031 C 132.78125 123.417969 132.667969 123.375 132.554688 123.28125 L 132.46875 123.355469 C 132.542969 123.480469 132.570312 123.601562 132.589844 123.746094 C 132.382812 123.691406 132.207031 123.683594 132 123.742188 C 130.964844 124.039062 130.964844 123.660156 130.644531 123.582031 C 130.636719 123.585938 130.628906 123.59375 130.621094 123.601562 C 130.640625 123.675781 130.667969 123.714844 130.738281 123.742188 C 131.769531 124.125 131.789062 123.617188 132.589844 123.75 L 132.597656 123.796875 C 132.351562 123.953125 132.683594 124.3125 132.910156 124.183594 C 132.847656 124.25 132.808594 124.316406 132.847656 124.402344 C 131.457031 124.109375 130.0625 123.871094 128.636719 123.894531 C 127.902344 123.90625 126.773438 124.023438 125.894531 124.292969 C 124.890625 124.601562 122.648438 126.859375 124.40625 127.484375 C 124.457031 127.714844 124.535156 127.882812 124.714844 128.042969 C 125.132812 128.417969 125.746094 128.527344 126.105469 128.964844 C 126.777344 129.769531 127.460938 129.683594 127.699219 129.835938 C 127.902344 129.96875 127.964844 130.304688 128.570312 130.410156 C 129.03125 130.492188 128.75 130.285156 129.203125 130.523438 C 129.859375 130.867188 130.558594 130 131.148438 129.460938 C 131.140625 130.089844 131.15625 130.722656 131.148438 131.351562 C 131.710938 131.175781 131.945312 131.613281 132.113281 132.074219 C 132.152344 132.058594 132.191406 132.046875 132.230469 132.03125 C 133.058594 131.800781 133.691406 133.660156 133.914062 134.222656 C 134.171875 134.878906 134.28125 135.703125 134.546875 135.6875 C 135.230469 135.640625 134.527344 133.929688 135.113281 132.925781 C 135.382812 132.460938 135.695312 132.445312 136.191406 132.367188 C 136.46875 131.980469 136.53125 131.90625 136.472656 131.390625 C 136.300781 129.878906 134.929688 128.542969 135.140625 127.027344 C 135.199219 127.082031 135.242188 127.121094 135.324219 127.125 C 135.316406 127.242188 135.515625 127.335938 135.605469 127.339844 C 135.589844 127.441406 135.773438 127.574219 135.863281 127.523438 C 135.90625 127.589844 135.953125 127.621094 136.023438 127.652344 C 136.085938 127.609375 136.132812 127.574219 136.179688 127.527344 " fill-opacity="1" fill-rule="evenodd"/></g></g></g><g clip-path="url(#c21c244076)"><g clip-path="url(#1189904e32)"><g clip-path="url(#f1f7876a3a)"><path fill="#b4761a" d="M 116.660156 123.699219 C 116.652344 123.660156 116.644531 123.628906 116.628906 123.585938 C 116.585938 123.578125 116.550781 123.574219 116.507812 123.589844 C 116.484375 123.535156 116.351562 123.535156 116.324219 123.585938 C 116.277344 123.558594 116.152344 123.53125 116.113281 123.589844 C 116.074219 123.5625 116.039062 123.566406 115.992188 123.570312 C 116.425781 122.78125 117.546875 122.632812 118.160156 121.980469 C 118.371094 121.757812 118.367188 121.699219 118.371094 121.417969 C 118.164062 121.210938 118.023438 121.09375 118.058594 120.777344 C 118.136719 120.097656 119.070312 119.539062 118.765625 119.273438 C 118.644531 119.171875 118.300781 119.523438 117.953125 119.742188 C 117.648438 119.929688 116.691406 120.585938 116.382812 120.183594 C 116.367188 120.164062 116.355469 120.144531 116.34375 120.121094 C 116.101562 120.28125 115.835938 120.402344 115.632812 120.125 C 115.414062 120.425781 115.183594 120.714844 114.964844 121.015625 C 114.878906 120.550781 114.851562 119.898438 114.421875 119.828125 C 114.125 119.78125 114.332031 119.785156 114.082031 119.660156 C 113.757812 119.496094 113.613281 119.632812 113.46875 119.625 C 113.300781 119.613281 113.011719 119.332031 112.410156 119.476562 C 112.085938 119.554688 111.757812 119.390625 111.429688 119.417969 C 111.289062 119.433594 111.191406 119.484375 111.085938 119.574219 C 110.035156 119.25 110.296875 121.105469 110.664062 121.605469 C 110.984375 122.042969 111.472656 122.496094 111.816406 122.761719 C 112.480469 123.273438 113.226562 123.652344 113.984375 124 C 113.933594 124.027344 113.933594 124.074219 113.9375 124.128906 C 113.875 123.988281 113.59375 124.039062 113.652344 124.199219 L 113.632812 124.222656 C 113.207031 124 113.378906 123.753906 112.753906 123.570312 C 112.714844 123.558594 112.6875 123.566406 112.648438 123.597656 C 112.652344 123.601562 112.652344 123.609375 112.652344 123.613281 C 112.835938 123.691406 112.96875 123.511719 113.351562 124.015625 C 113.429688 124.117188 113.511719 124.175781 113.632812 124.222656 C 113.570312 124.285156 113.515625 124.332031 113.4375 124.363281 L 113.449219 124.429688 C 113.535156 124.425781 113.605469 124.445312 113.6875 124.476562 C 113.597656 124.570312 113.546875 124.65625 113.519531 124.78125 C 113.378906 125.398438 113.183594 125.289062 113.050781 125.433594 C 113.050781 125.441406 113.050781 125.445312 113.054688 125.453125 C 113.097656 125.464844 113.128906 125.460938 113.160156 125.429688 C 113.648438 125.007812 113.394531 124.855469 113.6875 124.476562 L 113.714844 124.488281 C 113.726562 124.65625 114.007812 124.589844 114.003906 124.4375 C 114.023438 124.484375 114.042969 124.527344 114.097656 124.53125 C 113.554688 125.164062 113.035156 125.816406 112.644531 126.558594 C 112.441406 126.9375 112.183594 127.554688 112.074219 128.082031 C 111.949219 128.691406 112.484375 130.488281 113.304688 129.757812 C 113.4375 129.796875 113.546875 129.804688 113.679688 129.757812 C 113.992188 129.648438 114.222656 129.363281 114.550781 129.300781 C 115.15625 129.183594 115.304688 128.804688 115.453125 128.726562 C 115.578125 128.660156 115.769531 128.722656 115.996094 128.441406 C 116.167969 128.222656 115.984375 128.3125 116.234375 128.144531 C 116.597656 127.90625 116.347656 127.300781 116.234375 126.839844 C 116.558594 127.023438 116.890625 127.195312 117.210938 127.375 C 117.28125 127.039062 117.574219 127.042969 117.859375 127.085938 C 117.863281 127.0625 117.867188 127.035156 117.871094 127.011719 C 117.984375 126.519531 119.125 126.71875 119.480469 126.765625 C 119.890625 126.820312 120.351562 126.996094 120.417969 126.855469 C 120.585938 126.488281 119.503906 126.367188 119.148438 125.777344 C 118.984375 125.507812 119.066406 125.34375 119.164062 125.0625 C 119.042969 124.8125 119.023438 124.757812 118.738281 124.644531 C 117.910156 124.304688 116.832031 124.632812 116.105469 124.09375 C 116.148438 124.078125 116.183594 124.066406 116.207031 124.023438 C 116.269531 124.0625 116.371094 123.984375 116.398438 123.941406 C 116.449219 123.976562 116.570312 123.921875 116.566406 123.863281 C 116.613281 123.855469 116.640625 123.839844 116.679688 123.8125 C 116.675781 123.769531 116.667969 123.738281 116.660156 123.699219 " fill-opacity="1" fill-rule="evenodd"/></g></g></g><g clip-path="url(#efa7374357)"><g clip-path="url(#dc2bef79b6)"><g clip-path="url(#f6f8232542)"><path fill="#b4761a" d="M 183.632812 107.570312 C 182.453125 106.414062 183.484375 102.839844 183.675781 99.953125 C 183.039062 101.25 182.398438 102.550781 181.761719 103.851562 C 177.070312 111.082031 178.738281 107.164062 176.535156 106.269531 C 168.378906 112.1875 174 108.078125 176.207031 105.804688 C 176.144531 105.617188 176.085938 105.429688 176.023438 105.246094 C 175.226562 104.800781 173.726562 104.222656 175.050781 103.351562 C 174.285156 102.480469 173.929688 102.03125 175.25 101.25 C 173.417969 99.0625 181.34375 98.582031 182.246094 98.429688 C 179.777344 98.441406 177.980469 98.671875 175.539062 99.164062 C 172.390625 97.773438 174.824219 93.105469 173.46875 89.179688 C 175.453125 86.992188 182.824219 93.84375 183.648438 97.570312 C 183.695312 97.480469 183.738281 97.417969 183.78125 97.367188 C 183.816406 97.167969 183.9375 96.976562 183.804688 96.875 C 183.625 96.734375 183.707031 96.519531 183.84375 96.441406 C 182.253906 88.621094 180.074219 89.558594 178.886719 89.410156 C 182.210938 89 182.917969 92.296875 183.984375 96.320312 C 184.070312 96.15625 184.320312 96.1875 184.355469 96.371094 C 185.488281 92.125 186.738281 88.984375 189.742188 89.476562 C 189.320312 89.683594 186.441406 88.078125 184.492188 96.484375 C 184.605469 96.582031 184.652344 96.78125 184.476562 96.898438 C 184.308594 97.011719 184.441406 97.191406 184.460938 97.445312 C 184.5 97.496094 184.535156 97.5625 184.570312 97.652344 C 185.769531 94.027344 193.828125 87.71875 195.582031 90.089844 C 193.835938 93.863281 195.78125 98.75 192.511719 99.816406 C 190.128906 99.085938 188.367188 98.675781 185.910156 98.410156 C 186.792969 98.652344 194.628906 99.929688 192.589844 101.921875 C 193.820312 102.832031 193.421875 103.242188 192.574219 104.03125 C 193.804688 105.035156 192.25 105.457031 191.414062 105.816406 C 191.335938 105.996094 191.253906 106.175781 191.175781 106.355469 C 193.140625 108.84375 198.320312 113.496094 190.800781 106.789062 C 188.515625 107.457031 189.78125 111.523438 185.84375 103.855469 C 185.34375 102.5 184.84375 101.3125 184.34375 99.957031 C 184.246094 102.726562 184.949219 106.796875 183.632812 107.570312 " fill-opacity="1" fill-rule="evenodd"/></g></g></g><g clip-path="url(#414297a968)"><g clip-path="url(#fda1eeaa65)"><g clip-path="url(#21e608207a)"><path fill="#b4761a" d="M 159.097656 93.894531 C 159.066406 93.886719 159.035156 93.882812 159.003906 93.878906 C 160.15625 92.175781 160.308594 90.039062 160.429688 88.054688 C 160.625 86.703125 159.726562 86.710938 160.265625 88.09375 C 160.167969 89.890625 160.097656 90.84375 159.511719 92.738281 C 159.835938 91.277344 160.042969 89.722656 159.699219 88.265625 C 159.773438 87.027344 158.804688 86.863281 159.542969 88.339844 C 159.929688 89.6875 159.707031 92.535156 158.855469 93.875 C 158.488281 93.910156 158.402344 94.296875 158.34375 94.921875 C 158.023438 94.183594 160.269531 89.972656 153.195312 84.59375 C 153.113281 85.644531 152.46875 87.238281 153.707031 88.699219 C 154.449219 89.578125 153.042969 90.074219 154.042969 92.1875 C 152.828125 90.945312 151.238281 89.019531 146.289062 88.660156 C 146.601562 90.265625 147.945312 91.660156 149.421875 92.503906 C 148.242188 94.441406 147.570312 97.9375 152.820312 97.804688 C 151.292969 99.664062 151.554688 100.386719 151.78125 101.050781 C 152.011719 101.71875 152.683594 103.082031 150.527344 103.957031 C 152.808594 104.074219 154.152344 103.484375 154.679688 102.320312 C 155.0625 102.964844 154.714844 104.253906 153.21875 104.429688 C 157.273438 105.445312 158.289062 99.382812 158.128906 97.019531 C 158.347656 97.800781 158.328125 98.71875 158.152344 99.632812 C 157.632812 102.390625 159.265625 102.730469 159.203125 99.621094 C 159.175781 98.289062 158.378906 96.128906 158.871094 95.21875 C 159.25 94.515625 159.4375 94.09375 159.097656 93.894531 " fill-opacity="1" fill-rule="evenodd"/></g></g></g><g fill="#b4761a" fill-opacity="1"><g transform="translate(152.173918, 237.783925)"><g><path d="M 0.765625 -0.308594 L 0.765625 0 L 7.589844 0 L 7.589844 -0.308594 L 6.414062 -0.308594 C 5.929688 -0.308594 5.113281 -0.535156 5.113281 -1.941406 L 5.113281 -12.730469 L 5.980469 -13.957031 L 13.496094 0 L 17.816406 0 L 17.816406 -0.308594 C 15.414062 -0.308594 14.773438 -1.585938 13.675781 -3.628906 C 11.527344 -7.640625 9.253906 -11.605469 7.207031 -15.667969 C 8.742188 -17.816406 10.25 -19.960938 11.808594 -22.058594 C 13.777344 -24.691406 15.363281 -25.253906 17.152344 -25.253906 L 17.152344 -25.558594 L 9.253906 -25.558594 L 9.253906 -25.253906 C 10.378906 -25.253906 11.476562 -25.101562 11.476562 -23.949219 C 11.476562 -22.210938 9.636719 -19.554688 7.539062 -16.691406 C 6.722656 -15.566406 5.929688 -14.519531 5.113281 -13.367188 L 5.113281 -23.617188 C 5.113281 -25.023438 5.929688 -25.253906 6.414062 -25.253906 L 7.589844 -25.253906 L 7.589844 -25.558594 L 0.765625 -25.558594 L 0.765625 -25.253906 L 1.941406 -25.253906 C 2.429688 -25.253906 3.246094 -25.023438 3.246094 -23.617188 L 3.246094 -1.941406 C 3.246094 -0.535156 2.429688 -0.308594 1.941406 -0.308594 Z M 0.765625 -0.308594 "/></g></g></g><g fill="#b4761a" fill-opacity="1"><g transform="translate(172.084347, 237.783925)"><g><path d="M 0.765625 -0.308594 L 0.765625 0 L 9.484375 0 L 9.484375 -0.28125 L 8.359375 -0.28125 C 6.3125 -0.28125 5.90625 -1.738281 5.90625 -3.628906 C 5.90625 -7.308594 7.183594 -16.152344 8.460938 -23.847656 C 8.535156 -23.617188 8.589844 -23.386719 8.664062 -23.15625 C 11.78125 -13.828125 12.804688 -8.179688 15.183594 0.511719 L 15.488281 0.511719 C 17.714844 -7.4375 19.859375 -15.769531 22.03125 -23.898438 C 23.257812 -16.332031 25.304688 -5.238281 25.304688 -2.835938 C 25.304688 -1.328125 24.207031 -0.28125 22.160156 -0.28125 L 21.035156 -0.28125 L 21.035156 0 L 31.003906 0 L 31.003906 -0.308594 L 29.804688 -0.308594 C 27.144531 -0.308594 26.378906 -6.464844 25.40625 -12.78125 C 24.691406 -17.507812 23.539062 -23.335938 23.539062 -24.640625 C 23.539062 -25.074219 23.746094 -25.253906 24.230469 -25.253906 L 26.609375 -25.253906 L 26.609375 -25.558594 L 22.136719 -25.558594 C 22.109375 -25.457031 22.082031 -25.355469 22.058594 -25.253906 C 19.730469 -15.898438 18.402344 -11.605469 16.152344 -2.964844 C 13.726562 -11.757812 12.574219 -15.871094 9.992188 -25.253906 C 9.96875 -25.355469 9.941406 -25.457031 9.917969 -25.558594 L 5.164062 -25.558594 L 5.164062 -25.253906 L 7.132812 -25.253906 C 7.667969 -25.253906 8.203125 -24.996094 8.203125 -24.539062 C 8.203125 -22.851562 7.082031 -17.433594 6.363281 -12.78125 C 5.394531 -6.464844 4.625 -0.308594 1.96875 -0.308594 Z M 0.765625 -0.308594 "/></g></g></g><g fill="#b4761a" fill-opacity="1"><g transform="translate(205.183005, 237.783925)"><g><path d="M 14.289062 -6.109375 C 14.289062 -1.839844 11.730469 0.203125 8.640625 0.203125 C 5.085938 0.203125 1.839844 -1.074219 1.839844 -6.464844 L 1.839844 -12.804688 L 1.535156 -12.804688 L 1.535156 0.484375 L 1.839844 0.484375 C 2.171875 0.101562 2.660156 -0.0273438 3.296875 -0.0273438 C 4.574219 -0.0273438 6.210938 0.511719 8.640625 0.511719 C 13.496094 0.511719 15.898438 -2.582031 15.898438 -6.160156 C 15.898438 -9.738281 13.878906 -11.605469 11.449219 -13.0625 L 16.101562 -26.070312 L 15.847656 -26.070312 C 15.363281 -25.125 14.75 -24.996094 14.210938 -24.996094 C 12.703125 -24.996094 11.628906 -26.070312 8.359375 -26.070312 C 4.703125 -26.070312 1.535156 -24.152344 1.535156 -20.5 C 1.535156 -12.039062 14.289062 -13.164062 14.289062 -6.109375 Z M 8.359375 -25.765625 C 16.792969 -25.765625 12.882812 -18.121094 11.195312 -13.1875 C 7.539062 -15.308594 3.066406 -16.589844 3.066406 -21.242188 C 3.066406 -22.773438 4.039062 -25.765625 8.359375 -25.765625 Z M 8.359375 -25.765625 "/></g></g></g><g fill="#2d6a4f" fill-opacity="1"><g transform="translate(148.94539, 262.487503)"><g><path d="M 8.203125 -4.25 C 8.203125 -1.3125 7.171875 0.15625 5.109375 0.15625 C 4.460938 0.15625 3.925781 0.0390625 3.5 -0.1875 C 3.082031 -0.414062 2.742188 -0.789062 2.484375 -1.3125 L 2.46875 -1.3125 C 2.46875 -1.144531 2.457031 -0.894531 2.4375 -0.5625 C 2.414062 -0.238281 2.398438 -0.0507812 2.390625 0 L 1.03125 0 C 1.0625 -0.28125 1.078125 -0.859375 1.078125 -1.734375 L 1.078125 -11.578125 L 2.484375 -11.578125 L 2.484375 -8.265625 C 2.484375 -7.929688 2.472656 -7.535156 2.453125 -7.078125 L 2.484375 -7.078125 C 2.742188 -7.617188 3.085938 -8.003906 3.515625 -8.234375 C 3.941406 -8.472656 4.472656 -8.59375 5.109375 -8.59375 C 6.171875 -8.59375 6.953125 -8.234375 7.453125 -7.515625 C 7.953125 -6.796875 8.203125 -5.707031 8.203125 -4.25 Z M 6.734375 -4.203125 C 6.734375 -5.390625 6.578125 -6.238281 6.265625 -6.75 C 5.953125 -7.257812 5.445312 -7.515625 4.75 -7.515625 C 3.957031 -7.515625 3.378906 -7.242188 3.015625 -6.703125 C 2.660156 -6.160156 2.484375 -5.300781 2.484375 -4.125 C 2.484375 -3.019531 2.660156 -2.203125 3.015625 -1.671875 C 3.367188 -1.140625 3.941406 -0.875 4.734375 -0.875 C 5.441406 -0.875 5.953125 -1.132812 6.265625 -1.65625 C 6.578125 -2.1875 6.734375 -3.035156 6.734375 -4.203125 Z M 6.734375 -4.203125 "/></g></g></g><g fill="#2d6a4f" fill-opacity="1"><g transform="translate(159.474343, 262.487503)"><g><path d="M 8.203125 -4.21875 C 8.203125 -2.75 7.878906 -1.648438 7.234375 -0.921875 C 6.585938 -0.203125 5.644531 0.15625 4.40625 0.15625 C 3.175781 0.15625 2.242188 -0.21875 1.609375 -0.96875 C 0.984375 -1.71875 0.671875 -2.800781 0.671875 -4.21875 C 0.671875 -7.132812 1.929688 -8.59375 4.453125 -8.59375 C 5.742188 -8.59375 6.691406 -8.238281 7.296875 -7.53125 C 7.898438 -6.820312 8.203125 -5.71875 8.203125 -4.21875 Z M 6.734375 -4.21875 C 6.734375 -5.382812 6.5625 -6.234375 6.21875 -6.765625 C 5.875 -7.296875 5.289062 -7.5625 4.46875 -7.5625 C 3.65625 -7.5625 3.0625 -7.289062 2.6875 -6.75 C 2.320312 -6.207031 2.140625 -5.363281 2.140625 -4.21875 C 2.140625 -3.113281 2.320312 -2.28125 2.6875 -1.71875 C 3.050781 -1.15625 3.617188 -0.875 4.390625 -0.875 C 5.234375 -0.875 5.832031 -1.144531 6.1875 -1.6875 C 6.550781 -2.226562 6.734375 -3.070312 6.734375 -4.21875 Z M 6.734375 -4.21875 "/></g></g></g><g fill="#2d6a4f" fill-opacity="1"><g transform="translate(170.003297, 262.487503)"><g><path d="M 8.203125 -4.21875 C 8.203125 -2.75 7.878906 -1.648438 7.234375 -0.921875 C 6.585938 -0.203125 5.644531 0.15625 4.40625 0.15625 C 3.175781 0.15625 2.242188 -0.21875 1.609375 -0.96875 C 0.984375 -1.71875 0.671875 -2.800781 0.671875 -4.21875 C 0.671875 -7.132812 1.929688 -8.59375 4.453125 -8.59375 C 5.742188 -8.59375 6.691406 -8.238281 7.296875 -7.53125 C 7.898438 -6.820312 8.203125 -5.71875 8.203125 -4.21875 Z M 6.734375 -4.21875 C 6.734375 -5.382812 6.5625 -6.234375 6.21875 -6.765625 C 5.875 -7.296875 5.289062 -7.5625 4.46875 -7.5625 C 3.65625 -7.5625 3.0625 -7.289062 2.6875 -6.75 C 2.320312 -6.207031 2.140625 -5.363281 2.140625 -4.21875 C 2.140625 -3.113281 2.320312 -2.28125 2.6875 -1.71875 C 3.050781 -1.15625 3.617188 -0.875 4.390625 -0.875 C 5.234375 -0.875 5.832031 -1.144531 6.1875 -1.6875 C 6.550781 -2.226562 6.734375 -3.070312 6.734375 -4.21875 Z M 6.734375 -4.21875 "/></g></g></g><g fill="#2d6a4f" fill-opacity="1"><g transform="translate(180.532251, 262.487503)"><g><path d="M 6.359375 0 L 3.515625 -3.859375 L 2.484375 -3 L 2.484375 0 L 1.078125 0 L 1.078125 -11.578125 L 2.484375 -11.578125 L 2.484375 -4.34375 L 6.1875 -8.4375 L 7.828125 -8.4375 L 4.40625 -4.8125 L 8 0 Z M 6.359375 0 "/></g></g></g><g fill="#2d6a4f" fill-opacity="1"><g transform="translate(190.164296, 262.487503)"><g/></g></g><g fill="#2d6a4f" fill-opacity="1"><g transform="translate(196.247735, 262.487503)"><g><path d="M 7.40625 -2.328125 C 7.40625 -1.535156 7.101562 -0.921875 6.5 -0.484375 C 5.90625 -0.0546875 5.066406 0.15625 3.984375 0.15625 C 2.929688 0.15625 2.117188 -0.015625 1.546875 -0.359375 C 0.984375 -0.703125 0.613281 -1.242188 0.4375 -1.984375 L 1.6875 -2.21875 C 1.800781 -1.769531 2.046875 -1.4375 2.421875 -1.21875 C 2.796875 -1.007812 3.316406 -0.90625 3.984375 -0.90625 C 4.691406 -0.90625 5.210938 -1.015625 5.546875 -1.234375 C 5.878906 -1.453125 6.046875 -1.78125 6.046875 -2.21875 C 6.046875 -2.550781 5.929688 -2.820312 5.703125 -3.03125 C 5.472656 -3.238281 5.101562 -3.410156 4.59375 -3.546875 L 3.59375 -3.8125 C 2.78125 -4.019531 2.203125 -4.222656 1.859375 -4.421875 C 1.523438 -4.617188 1.257812 -4.859375 1.0625 -5.140625 C 0.875 -5.429688 0.78125 -5.785156 0.78125 -6.203125 C 0.78125 -6.972656 1.050781 -7.554688 1.59375 -7.953125 C 2.144531 -8.359375 2.945312 -8.5625 4 -8.5625 C 4.925781 -8.5625 5.664062 -8.398438 6.21875 -8.078125 C 6.769531 -7.753906 7.117188 -7.226562 7.265625 -6.5 L 6 -6.34375 C 5.914062 -6.71875 5.703125 -7.003906 5.359375 -7.203125 C 5.023438 -7.410156 4.570312 -7.515625 4 -7.515625 C 3.363281 -7.515625 2.894531 -7.414062 2.59375 -7.21875 C 2.289062 -7.03125 2.140625 -6.738281 2.140625 -6.34375 C 2.140625 -6.101562 2.203125 -5.90625 2.328125 -5.75 C 2.453125 -5.59375 2.632812 -5.457031 2.875 -5.34375 C 3.125 -5.238281 3.640625 -5.09375 4.421875 -4.90625 C 5.171875 -4.71875 5.707031 -4.539062 6.03125 -4.375 C 6.363281 -4.21875 6.625 -4.046875 6.8125 -3.859375 C 7 -3.671875 7.144531 -3.445312 7.25 -3.1875 C 7.351562 -2.9375 7.40625 -2.648438 7.40625 -2.328125 Z M 7.40625 -2.328125 "/></g></g></g><g fill="#2d6a4f" fill-opacity="1"><g transform="translate(205.879783, 262.487503)"><g><path d="M 1.0625 -10.234375 L 1.0625 -11.578125 L 2.46875 -11.578125 L 2.46875 -10.234375 Z M 1.0625 0 L 1.0625 -8.4375 L 2.46875 -8.4375 L 2.46875 0 Z M 1.0625 0 "/></g></g></g><g fill="#2d6a4f" fill-opacity="1"><g transform="translate(211.074118, 262.487503)"><g><path d="M 4.3125 -0.0625 C 3.851562 0.0625 3.382812 0.125 2.90625 0.125 C 1.78125 0.125 1.21875 -0.507812 1.21875 -1.78125 L 1.21875 -7.421875 L 0.234375 -7.421875 L 0.234375 -8.4375 L 1.265625 -8.4375 L 1.6875 -10.328125 L 2.625 -10.328125 L 2.625 -8.4375 L 4.171875 -8.4375 L 4.171875 -7.421875 L 2.625 -7.421875 L 2.625 -2.09375 C 2.625 -1.6875 2.6875 -1.398438 2.8125 -1.234375 C 2.945312 -1.066406 3.179688 -0.984375 3.515625 -0.984375 C 3.703125 -0.984375 3.96875 -1.019531 4.3125 -1.09375 Z M 4.3125 -0.0625 "/></g></g></g><g fill="#2d6a4f" fill-opacity="1"><g transform="translate(217.157557, 262.487503)"><g><path d="M 2.15625 -3.921875 C 2.15625 -2.953125 2.351562 -2.203125 2.75 -1.671875 C 3.15625 -1.148438 3.738281 -0.890625 4.5 -0.890625 C 5.113281 -0.890625 5.601562 -1.007812 5.96875 -1.25 C 6.332031 -1.5 6.582031 -1.8125 6.71875 -2.1875 L 7.953125 -1.84375 C 7.441406 -0.507812 6.289062 0.15625 4.5 0.15625 C 3.257812 0.15625 2.3125 -0.210938 1.65625 -0.953125 C 1 -1.703125 0.671875 -2.804688 0.671875 -4.265625 C 0.671875 -5.660156 1 -6.726562 1.65625 -7.46875 C 2.3125 -8.21875 3.242188 -8.59375 4.453125 -8.59375 C 6.929688 -8.59375 8.171875 -7.097656 8.171875 -4.109375 L 8.171875 -3.921875 Z M 6.71875 -5 C 6.644531 -5.882812 6.421875 -6.53125 6.046875 -6.9375 C 5.671875 -7.351562 5.128906 -7.5625 4.421875 -7.5625 C 3.742188 -7.5625 3.207031 -7.332031 2.8125 -6.875 C 2.414062 -6.414062 2.203125 -5.789062 2.171875 -5 Z M 6.71875 -5 "/></g></g></g></svg>